<svg xmlns="http://www.w3.org/2000/svg" viewBox="0 0 365 200"><defs><style>.cls-1{fill:none;}.cls-2{fill:#d00;}.cls-3{fill:#7d0808;}.cls-4{fill:#c40000;}.cls-5{fill:red;}</style></defs><g id="Layer_2" data-name="Layer 2"><g id="Layer_1-2" data-name="Layer 1"><rect class="cls-1" width="365" height="200"/><path class="cls-2" d="M121.84,7.5h29.87v9h-9.79v39H131.39v-39h-9.55Z"/><path class="cls-2" d="M154.49,7.5h9.89V23.75q2.67-4.5,8.71-4.5a8.84,8.84,0,0,1,5.7,1.68,7.36,7.36,0,0,1,2.65,4.28,37.34,37.34,0,0,1,.56,7.51V55.51h-9.89V32.69c0-2.33-.22-3.87-.65-4.63a2.84,2.84,0,0,0-2.69-1.15,4.53,4.53,0,0,0-3.19,1.1c-.8.72-1.2,2.38-1.2,5V55.51h-9.89Z"/><path class="cls-2" d="M216.05,39.4H197.48v2q0,4.77,1.3,6.38a4.12,4.12,0,0,0,3.39,1.61c3,0,4.7-2,5.07-6.05l8.81.57Q213.7,56.25,202,56.25q-7.22,0-11-4.89t-3.75-13.09q0-9.24,4-14.12a13.09,13.09,0,0,1,10.67-4.87A13.28,13.28,0,0,1,212,23.59Q216.05,27.9,216.05,39.4Zm-9.34-5.73c0-.43,0-.75,0-1q0-6.85-4.62-6.86t-4.58,7.85Z"/><path class="cls-2" d="M127.21,69.52h10.53V88.9h11.52V69.52h10.53v48H149.26V97.91H137.74v19.62H127.21Z"/><path class="cls-2" d="M177.9,79.09h-10V69.28h10Zm-10,2.92h9.9v35.52h-9.9Z"/><path class="cls-2" d="M202.43,69.52h9.72v48H203v-5.87Q200.71,118,194.9,118a9.13,9.13,0,0,1-8.51-5q-2.8-5-2.81-13.12,0-9.25,3.21-13.82a10,10,0,0,1,8.59-4.57c3.3,0,5.65,1.26,7.05,3.8Zm0,27.35q0-5.24-1.11-7a3.56,3.56,0,0,0-3.22-1.78,3.36,3.36,0,0,0-3.4,2.46q-.9,2.46-.9,10.19,0,5.76,1,8.07a3.35,3.35,0,0,0,3.25,2.32,3.88,3.88,0,0,0,3.15-1.56q1.24-1.56,1.25-6.41Z"/><path class="cls-2" d="M236.72,69.52h9.73v48h-9.2v-5.87Q235,118,229.19,118a9.14,9.14,0,0,1-8.51-5q-2.81-5-2.81-13.12,0-9.25,3.22-13.82a10,10,0,0,1,8.58-4.57c3.3,0,5.65,1.26,7.05,3.8Zm0,27.35q0-5.24-1.11-7a3.56,3.56,0,0,0-3.22-1.78,3.37,3.37,0,0,0-3.4,2.46q-.9,2.46-.9,10.19,0,5.76,1,8.07a3.33,3.33,0,0,0,3.24,2.32,3.86,3.86,0,0,0,3.15-1.56c.84-1,1.25-3.18,1.25-6.41Z"/><path class="cls-2" d="M281,101.42H262.38v2c0,3.17.43,5.3,1.29,6.37a4.16,4.16,0,0,0,3.4,1.62c3,0,4.7-2,5.07-6l8.81.56q-2.35,12.38-14.06,12.38-7.22,0-11-4.89t-3.75-13.08q0-9.26,4-14.12a13.06,13.06,0,0,1,10.67-4.87,13.27,13.27,0,0,1,10.08,4.3Q281,89.93,281,101.42Zm-9.34-5.73c0-.42,0-.75,0-1,0-4.58-1.54-6.86-4.62-6.86s-4.56,2.61-4.58,7.84Z"/><path class="cls-2" d="M286.74,82h9.37v4.85q2.46-5.55,8.88-5.55a9.89,9.89,0,0,1,5.74,1.56,6.9,6.9,0,0,1,2.9,4,31.83,31.83,0,0,1,.63,7.39v23.28h-9.9V94.25c0-2.39-.3-3.87-.91-4.43A3.46,3.46,0,0,0,301,89c-1.78,0-2.95.55-3.51,1.64s-.84,3.12-.84,6.1v20.82h-9.9Z"/><path class="cls-2" d="M127.21,131.55h10.53v19.38h11.52V131.55h10.53v48H149.26V159.93H137.74v19.62H127.21Z"/><path class="cls-2" d="M195.24,163.45H176.67v2c0,3.18.43,5.3,1.29,6.38a4.17,4.17,0,0,0,3.39,1.61q4.52,0,5.08-6.05l8.81.56q-2.36,12.39-14.06,12.38-7.23,0-11-4.89t-3.76-13.08q0-9.24,4-14.12a13.08,13.08,0,0,1,10.68-4.87,13.28,13.28,0,0,1,10.08,4.31Q195.24,151.95,195.24,163.45Zm-9.34-5.74c0-.42,0-.75,0-1,0-4.57-1.53-6.86-4.61-6.86s-4.56,2.62-4.58,7.84Z"/><path class="cls-2" d="M201,144h8.7v8.58q2.36-9,8.39-9a9.19,9.19,0,0,1,1.69.17v9.67a15,15,0,0,0-1.65-.14q-7.24,0-7.23,11v15.29H201Z"/><path class="cls-2" d="M233,141.11H223V131.3h10ZM223,144h9.9v35.52H223Z"/><path class="cls-2" d="M241.67,133.13l9.62-.32V144h6.53v7.81h-6.53v13a40.55,40.55,0,0,0,.16,4.69,2.72,2.72,0,0,0,1.05,1.8,4.86,4.86,0,0,0,3,.72c.75,0,1.69,0,2.81-.07v7.52a27.36,27.36,0,0,1-6,.74c-3,0-5.29-.57-6.88-1.72a7.54,7.54,0,0,1-3-4.33,36.22,36.22,0,0,1-.67-8.26V151.84h-3.93V144h3.93Z"/><path class="cls-2" d="M272.35,155.32l-9.37-.91a11.52,11.52,0,0,1,4.54-8.23,16,16,0,0,1,9.78-2.89,14.73,14.73,0,0,1,8,1.92,8.43,8.43,0,0,1,3.81,4.45,28.34,28.34,0,0,1,.79,7.84v14.18q0,6.62.6,7.87h-9.2a19.68,19.68,0,0,1-.49-5.45q-3.26,6.19-9.71,6.19a9.3,9.3,0,0,1-6.72-2.48q-2.6-2.48-2.6-7.22,0-6,3.93-9.2T280,157.5v-1.33a11.72,11.72,0,0,0-.72-4.93,2.83,2.83,0,0,0-2.77-1.37Q272.73,149.87,272.35,155.32ZM280,162.6q-4.32.5-6.16,1.91T272,169.3q0,4.48,3.3,4.49a4.05,4.05,0,0,0,3.24-2q1.45-2,1.46-7.41Z"/><path class="cls-2" d="M327.31,138.2v6.47a8.65,8.65,0,0,0-2.14-.29,3.53,3.53,0,0,0-3.75,3.21,9.92,9.92,0,0,1,2.63,7.1,9.42,9.42,0,0,1-3.58,7.72,14.29,14.29,0,0,1-9.27,2.9,19.05,19.05,0,0,1-4.59-.6c-1.55.85-2.32,1.82-2.32,2.92a1.7,1.7,0,0,0,1.3,1.76,40.18,40.18,0,0,0,7.09.74,41.12,41.12,0,0,1,8,1.05,8.43,8.43,0,0,1,4.43,3,9.54,9.54,0,0,1,1.77,6q0,11.9-17.31,11.89-14.52,0-14.53-8.48,0-4.66,5.79-6.61c-3.08-1.45-4.63-3.5-4.63-6.15q0-4.58,6.11-7.81Q297,160.47,297,154.2q0-5.31,3.64-8.09t9.7-2.78a18.76,18.76,0,0,1,7.58,1.55q.39-3.8,1.9-5.42t4.74-1.62A9.41,9.41,0,0,1,327.31,138.2Zm-21,39.81q-3.12,1.44-3.12,4.29,0,3.58,8.14,3.59c4.66,0,7-1.25,7-3.73a3.3,3.3,0,0,0-.75-2.24,3.4,3.4,0,0,0-1.93-1.09,45.29,45.29,0,0,0-4.93-.4C309.2,178.34,307.74,178.2,306.29,178Zm7.55-23.64c0-3.82-1-5.73-3.13-5.73A2.82,2.82,0,0,0,308,150a9.8,9.8,0,0,0-.79,4.59q0,5.38,3.4,5.38a2.61,2.61,0,0,0,2.46-1.27A9.25,9.25,0,0,0,313.84,154.37Z"/><path class="cls-2" d="M357.5,163.45H338.93v2c0,3.18.43,5.3,1.3,6.38a4.14,4.14,0,0,0,3.39,1.61q4.51,0,5.07-6.05l8.81.56q-2.36,12.39-14.06,12.38-7.21,0-11-4.89t-3.75-13.08q0-9.24,4-14.12a13.06,13.06,0,0,1,10.67-4.87,13.28,13.28,0,0,1,10.08,4.31Q357.5,151.95,357.5,163.45Zm-9.34-5.74c0-.42,0-.75,0-1q0-6.85-4.62-6.86T339,157.71Z"/><polygon class="cls-3" points="110.81 87.68 110.81 180.5 7.5 180.5 7.5 8.44 51.18 8.44 51.18 37.12 85.44 37.12 85.44 87.68 110.81 87.68"/><polygon class="cls-4" points="65.68 180.72 50.41 180.72 50.1 179.4 50.41 179.01 60.42 174.36 61.4 176.69 63.24 176.26 65.68 180.72"/><polygon class="cls-4" points="60.98 145.35 55.79 157.93 55.21 152.04 58.87 144.99 60.89 144.99 60.98 145.35"/><polygon class="cls-4" points="60.48 104.52 58.4 106.41 58.35 106.37 57.99 106.71 58.04 111.02 57.52 111.75 55.88 114.06 55.21 115 54.29 115.78 50.38 117.8 49.31 117.8 42.31 121.8 33.45 118.6 45.21 113.54 55.38 103.73 55.58 103.54 58.23 101.77 60.39 104.4 60.48 104.52"/><polygon class="cls-2" points="65.48 99.98 60.48 104.52 58.4 106.41 58.35 106.37 56.29 104.54 55.91 104.2 55.38 103.73 55.34 103.7 55.58 100.29 51.78 100.52 51.32 95.33 49.78 95.02 52.1 90.83 51.32 88.2 58.92 92.08 58.95 92.09 64.86 95.1 64.83 95.16 63.77 97.73 65.28 99.71 65.48 99.98"/><polygon class="cls-5" points="66.71 78.23 71.9 98.84 45.91 85.28 66.71 78.23"/><polygon class="cls-5" points="80.04 143.6 68.82 160.49 72.92 173.98 71.42 174.33 74.16 190.95 59.31 192.5 55.6 190.1 55.6 187.54 65.65 185.68 66.66 182.5 65.68 180.72 63.24 176.26 61.4 176.69 60.42 174.36 54.67 160.65 55.79 157.93 60.98 145.35 61.13 144.99 58.46 144.99 58.22 125.31 49.47 129.81 49.4 129.58 49.4 129.64 43.05 127.63 39.84 125.53 36.48 127.78 31.38 125.3 30.29 120.27 32.92 118.41 33.45 118.6 42.31 121.8 43.21 122.13 46.84 122.33 46.78 122.17 54.29 115.78 55.21 115 55.88 114.06 57.52 111.75 58.04 111.02 57.99 106.71 58.35 106.37 58.4 106.41 60.48 104.52 65.48 99.98 65.28 99.71 65.65 99.35 73.77 107.25 84.91 141.04 79.01 143.6 80.04 143.6"/></g></g></svg>