<svg xmlns="http://www.w3.org/2000/svg" viewBox="0 0 350.57 184.93"><defs><style>.cls-1{fill:#fff;}.cls-2{fill:#222;}.cls-3{fill:#aaa;}.cls-4{fill:#444;}</style></defs><g id="Layer_2" data-name="Layer 2"><g id="Layer_1-2" data-name="Layer 1"><path class="cls-1" d="M114.53,0h29.92V9h-9.81V48H124.09V9h-9.56Z"/><path class="cls-1" d="M147.22,0h9.92V16.24q2.67-4.5,8.72-4.5a8.81,8.81,0,0,1,5.71,1.69,7.34,7.34,0,0,1,2.65,4.27,37.27,37.27,0,0,1,.57,7.51V48h-9.92V25.18c0-2.32-.21-3.87-.65-4.63s-1.33-1.14-2.69-1.14a4.57,4.57,0,0,0-3.2,1.09q-1.19,1.09-1.19,5V48h-9.92Z"/><path class="cls-1" d="M208.89,31.89h-18.6v2c0,3.17.43,5.3,1.3,6.37a4.13,4.13,0,0,0,3.4,1.62q4.51,0,5.07-6.05l8.83.56q-2.35,12.38-14.08,12.38-7.23,0-11-4.89t-3.76-13.08q0-9.24,4-14.11a13.08,13.08,0,0,1,10.69-4.87,13.29,13.29,0,0,1,10.09,4.3Q208.9,20.4,208.89,31.89Zm-9.35-5.73c0-.43,0-.75,0-1q0-6.85-4.62-6.85t-4.59,7.84Z"/><path class="cls-1" d="M119.91,62h10.55V81.37H142V62h10.54v48H142V90.37H130.46V110H119.91Z"/><path class="cls-1" d="M170.67,71.56h-10V61.75h10Zm-10,2.92h9.91V110h-9.91Z"/><path class="cls-1" d="M195.25,62H205v48h-9.21v-5.87q-2.25,6.36-8.08,6.36a9.15,9.15,0,0,1-8.52-5q-2.82-5-2.81-13.11,0-9.25,3.22-13.82A10,10,0,0,1,188.18,74c3.31,0,5.66,1.26,7.07,3.8Zm0,27.34c0-3.49-.37-5.82-1.11-7a3.6,3.6,0,0,0-3.23-1.77A3.38,3.38,0,0,0,187.5,83q-.9,2.46-.9,10.18,0,5.76,1,8.07a3.35,3.35,0,0,0,3.25,2.32A3.86,3.86,0,0,0,194,102q1.26-1.56,1.26-6.41Z"/><path class="cls-1" d="M229.6,62h9.73v48h-9.21v-5.87q-2.24,6.36-8.07,6.36a9.18,9.18,0,0,1-8.53-5q-2.81-5-2.8-13.11,0-9.25,3.21-13.82a10,10,0,0,1,8.6-4.57c3.3,0,5.66,1.26,7.07,3.8Zm0,27.34c0-3.49-.37-5.82-1.12-7a3.58,3.58,0,0,0-3.23-1.77,3.37,3.37,0,0,0-3.4,2.46q-.9,2.46-.9,10.18,0,5.76,1,8.07a3.34,3.34,0,0,0,3.24,2.32,3.88,3.88,0,0,0,3.16-1.56q1.26-1.56,1.26-6.41Z"/><path class="cls-1" d="M273.89,93.89H255.3v2c0,3.17.43,5.3,1.29,6.37a4.16,4.16,0,0,0,3.4,1.62c3,0,4.71-2,5.08-6l8.82.56q-2.36,12.38-14.08,12.38-7.23,0-11-4.89t-3.76-13.08q0-9.24,4-14.11a13.1,13.1,0,0,1,10.69-4.87,13.31,13.31,0,0,1,10.1,4.3Q273.89,82.4,273.89,93.89Zm-9.35-5.73c0-.43,0-.75,0-1,0-4.57-1.55-6.85-4.63-6.85s-4.56,2.61-4.58,7.84Z"/><path class="cls-1" d="M279.69,74.48h9.39v4.85q2.46-5.55,8.89-5.55a9.9,9.9,0,0,1,5.75,1.56,6.86,6.86,0,0,1,2.9,4,31.13,31.13,0,0,1,.64,7.38V110h-9.92V86.71c0-2.39-.3-3.86-.91-4.42a3.46,3.46,0,0,0-2.46-.85c-1.78,0-3,.55-3.52,1.64s-.84,3.12-.84,6.1V110h-9.92Z"/><path class="cls-1" d="M119.91,124h10.55v19.37H142V124h10.54v48H142V152.37H130.46V172H119.91Z"/><path class="cls-1" d="M188,155.89h-18.6v2c0,3.17.44,5.3,1.3,6.37a4.14,4.14,0,0,0,3.4,1.62q4.52,0,5.08-6.05l8.82.56q-2.35,12.38-14.08,12.38-7.23,0-11-4.89t-3.76-13.08q0-9.24,4-14.11a13.08,13.08,0,0,1,10.69-4.87,13.31,13.31,0,0,1,10.1,4.3Q188,144.4,188,155.89Zm-9.35-5.73c0-.43,0-.75,0-1q0-6.85-4.62-6.85t-4.59,7.84Z"/><path class="cls-1" d="M193.84,136.48h8.72v8.58q2.35-9,8.4-9a9.11,9.11,0,0,1,1.69.18v9.67a12.86,12.86,0,0,0-1.65-.14q-7.25,0-7.24,11V172h-9.92Z"/><path class="cls-1" d="M225.87,133.56H215.81v-9.81h10.06Zm-10,2.92h9.91V172h-9.91Z"/><path class="cls-1" d="M234.55,125.58l9.64-.31v11.21h6.53v7.81h-6.53v13a44.11,44.11,0,0,0,.15,4.69,2.75,2.75,0,0,0,1.06,1.79,4.85,4.85,0,0,0,3,.73c.75,0,1.69,0,2.82-.08V172a28.13,28.13,0,0,1-6.05.74q-4.5,0-6.89-1.73a7.58,7.58,0,0,1-3.06-4.32,36.81,36.81,0,0,1-.67-8.26V144.29h-3.93v-7.81h3.93Z"/><path class="cls-1" d="M265.28,147.77l-9.39-.92a11.58,11.58,0,0,1,4.56-8.23,16,16,0,0,1,9.79-2.88,14.77,14.77,0,0,1,8,1.92,8.41,8.41,0,0,1,3.82,4.45,28.68,28.68,0,0,1,.79,7.84v14.16c0,4.41.2,7,.6,7.88h-9.21a19.61,19.61,0,0,1-.5-5.45q-3.25,6.18-9.72,6.19a9.39,9.39,0,0,1-6.74-2.48q-2.6-2.48-2.59-7.23,0-5.94,3.93-9.19T272.94,150v-1.34a11.84,11.84,0,0,0-.71-4.92,2.84,2.84,0,0,0-2.79-1.37C266.92,142.32,265.54,144.13,265.28,147.77Zm7.66,7.27q-4.32.5-6.17,1.91c-1.23,1-1.84,2.54-1.84,4.79q0,4.48,3.3,4.48a4.06,4.06,0,0,0,3.25-2c1-1.35,1.46-3.82,1.46-7.41Z"/><path class="cls-1" d="M320.33,130.64v6.47a9.19,9.19,0,0,0-2.14-.28,3.54,3.54,0,0,0-3.76,3.2,9.89,9.89,0,0,1,2.64,7.1,9.43,9.43,0,0,1-3.59,7.72,14.32,14.32,0,0,1-9.28,2.9,19.21,19.21,0,0,1-4.61-.6c-1.54.85-2.32,1.82-2.32,2.92a1.71,1.71,0,0,0,1.3,1.76,40.49,40.49,0,0,0,7.1.74,41.38,41.38,0,0,1,8,1.05,8.32,8.32,0,0,1,4.43,3,9.52,9.52,0,0,1,1.78,6q0,11.88-17.33,11.88-14.57,0-14.56-8.47,0-4.68,5.8-6.61-4.64-2.19-4.64-6.16,0-4.56,6.12-7.8-5.28-2.59-5.28-8.86a9.58,9.58,0,0,1,3.64-8.09q3.64-2.78,9.72-2.77a18.84,18.84,0,0,1,7.6,1.54q.39-3.8,1.9-5.41a6.19,6.19,0,0,1,4.74-1.62A9.85,9.85,0,0,1,320.33,130.64Zm-21.05,39.8q-3.13,1.44-3.13,4.29,0,3.59,8.15,3.59c4.67,0,7-1.25,7-3.73a3.23,3.23,0,0,0-.76-2.23,3.26,3.26,0,0,0-1.93-1.09,44.42,44.42,0,0,0-4.94-.41C302.19,170.77,300.73,170.63,299.28,170.44Zm7.55-23.62q0-5.73-3.12-5.73a2.83,2.83,0,0,0-2.69,1.38,9.78,9.78,0,0,0-.8,4.59q0,5.38,3.42,5.38a2.64,2.64,0,0,0,2.46-1.26A9.33,9.33,0,0,0,306.83,146.82Z"/><path class="cls-1" d="M350.57,155.89H332v2c0,3.17.43,5.3,1.3,6.37a4.13,4.13,0,0,0,3.4,1.62q4.51,0,5.07-6.05l8.83.56q-2.35,12.38-14.08,12.38-7.23,0-11-4.89t-3.76-13.08q0-9.24,4-14.11a13.08,13.08,0,0,1,10.69-4.87,13.28,13.28,0,0,1,10.09,4.3Q350.58,144.4,350.57,155.89Zm-9.35-5.73c0-.43,0-.75,0-1q0-6.85-4.62-6.85c-3,0-4.56,2.61-4.59,7.84Z"/><polygon class="cls-2" points="103.48 80.15 103.48 172.93 0 172.93 0 0.94 43.75 0.94 43.75 29.61 78.07 29.61 78.07 80.15 103.48 80.15"/><polygon class="cls-3" points="58.28 173.15 42.98 173.15 42.67 171.84 42.98 171.45 53.01 166.8 53.98 169.13 55.84 168.69 58.28 173.15"/><polygon class="cls-3" points="53.57 137.8 48.37 150.37 47.79 144.49 51.45 137.44 53.48 137.44 53.57 137.8"/><polygon class="cls-3" points="53.07 96.98 50.98 98.87 50.93 98.83 50.57 99.17 50.63 103.48 50.1 104.21 48.46 106.52 47.79 107.46 46.87 108.24 42.95 110.25 41.88 110.25 34.87 114.26 26 111.05 37.77 106 47.96 96.19 48.15 96 50.81 94.23 52.98 96.86 53.07 96.98"/><polygon class="cls-4" points="58.07 92.44 53.07 96.98 50.98 98.87 50.93 98.83 48.87 97 48.49 96.67 47.96 96.19 47.92 96.16 48.15 92.75 44.36 92.99 43.89 87.8 42.35 87.49 44.67 83.3 43.89 80.67 51.51 84.54 51.53 84.56 57.45 87.57 57.43 87.62 56.37 90.2 57.87 92.17 58.07 92.44"/><polygon class="cls-1" points="59.31 70.7 64.5 91.31 38.47 77.75 59.31 70.7"/><polygon class="cls-1" points="72.65 136.04 61.42 152.93 65.53 166.41 64.02 166.77 66.77 183.38 51.89 184.93 48.17 182.53 48.17 179.97 58.24 178.11 59.25 174.93 58.28 173.15 55.84 168.69 53.98 169.13 53.01 166.8 47.24 153.09 48.37 150.37 53.57 137.8 53.72 137.44 51.04 137.44 50.8 117.77 42.04 122.26 41.96 122.04 41.96 122.1 35.61 120.08 32.4 117.99 29.03 120.24 23.91 117.76 22.83 112.72 25.46 110.86 26 111.05 34.87 114.26 35.77 114.58 39.4 114.78 39.34 114.63 46.87 108.24 47.79 107.46 48.46 106.52 50.1 104.21 50.63 103.48 50.57 99.17 50.93 98.83 50.98 98.87 53.07 96.98 58.07 92.44 57.87 92.17 58.24 91.81 66.38 99.71 77.53 133.49 71.62 136.04 72.65 136.04"/></g></g></svg>