<?xml version="1.0" encoding="UTF-8"?><svg id="Layer_2" xmlns="http://www.w3.org/2000/svg" xmlns:xlink="http://www.w3.org/1999/xlink" viewBox="0 0 364.26 364.26"><defs><style>.cls-1{fill:#fff;}.cls-2{fill:#42c4d1;}.cls-3{fill:#00b489;}.cls-4{stroke:#00b489;}.cls-4,.cls-5,.cls-6,.cls-7{fill:none;}.cls-4,.cls-5,.cls-7{stroke-miterlimit:10;}.cls-4,.cls-7{stroke-width:5px;}.cls-5{stroke:#42c4d1;stroke-width:2px;}.cls-8{clip-path:url(#clippath);}.cls-9{fill:#0095ad;}.cls-10{fill:#e6e7e8;}.cls-7{stroke:#0095ad;}</style><clipPath id="clippath"><rect class="cls-6" width="364.26" height="364.26"/></clipPath></defs><g id="_3"><g class="cls-8"><g><g><g><path class="cls-9" d="M164.38,327.36c-.1,.62-.39,1.75-.9,3.38-.54,1.77-.93,2.81-1.19,3.13-.21,.25-.48,.35-.78,.3-.13-.02-.34-.08-.64-.17-1.04-.31-4.11-.85-9.22-1.63-1.12-.17-2.77-.43-4.97-.78-2.2-.35-3.85-.61-4.95-.78-.48-.07-.68-.32-.62-.74,.25-1.62,.71-4.04,1.39-7.27,.68-3.22,1.14-5.65,1.39-7.27,.25-1.65,.64-4.74,1.15-9.27,.13-1.16,.32-2.91,.56-5.23l.03-.31c.02-.34,.23-.48,.62-.42,1.07,.16,2.68,.44,4.82,.83,2.14,.39,3.75,.66,4.82,.83,1.06,.16,2.65,.38,4.79,.64,2.14,.27,3.73,.48,4.79,.64,.75,.12,1.14,.46,1.17,1.05,.02,.34-.02,1.37-.13,3.08s-.19,2.75-.24,3.11c-.05,.3-.21,.43-.5,.39-.09-.01-.24-.04-.45-.09-3.8-.91-7.24-1.6-10.31-2.07-.77-.12-1.27,0-1.5,.33-.1,.16-.22,.71-.37,1.66-.15,.99-.11,1.66,.13,2.02,.2,.31,.65,.52,1.35,.63,.14,.02,.43,.05,.85,.1,.42,.04,.77,.08,1.05,.13,1.82,.28,3.68,.51,5.56,.7,.16,0,.57,.04,1.21,.07,.5,.02,.9,.05,1.19,.09,.35,.05,.5,.25,.45,.58,.05-.3-.25,.79-.9,3.26-.29,1.14-.53,2.29-.71,3.45-.04,.29-.28,.4-.7,.34l-1.92-.52c-.81-.21-2.69-.54-5.63-1l-2.3-.35c-.59-.09-.96,0-1.11,.27-.03,.07-.1,.52-.23,1.34-.17,1.1-.21,1.82-.11,2.16,.16,.59,1.04,1.05,2.63,1.4-.03,0,1.03,.16,3.17,.49,.77,.12,1.92,.22,3.45,.32,1.53,.09,2.68,.2,3.43,.31,.32,.05,.44,.33,.36,.86Z"/><path class="cls-9" d="M197.23,329.61c0,.24-.15,.54-.45,.93-2.68,3.23-6.25,4.85-10.71,4.88-4.57,.03-8.29-1.51-11.15-4.61-2.79-3-4.2-6.8-4.23-11.4-.03-4.45,1.3-8.24,3.99-11.36,2.81-3.27,6.39-4.92,10.76-4.95,4.75-.03,8.48,1.4,11.19,4.3,.3,.32,.44,.61,.45,.85,0,.28-.5,1.31-1.51,3.11-1.01,1.79-1.64,2.8-1.9,3.02-.12,.12-.26,.18-.44,.18-.07,0-.44-.29-1.1-.87-.8-.7-1.58-1.24-2.34-1.63-1.16-.58-2.36-.86-3.61-.86-2.15,.01-3.87,.83-5.15,2.45-1.18,1.5-1.76,3.35-1.74,5.55,.01,2.23,.62,4.09,1.82,5.59,1.3,1.63,3.03,2.44,5.18,2.43,1.27,0,2.48-.29,3.62-.86,.74-.37,1.5-.89,2.28-1.55,.64-.56,1-.84,1.07-.84,.15,0,.29,.08,.44,.24,.24,.26,.88,1.17,1.93,2.73,1.08,1.62,1.62,2.51,1.62,2.67Z"/><path class="cls-9" d="M232.54,313.05c.86,4.49,.14,8.53-2.14,12.11-2.33,3.64-5.74,5.88-10.21,6.74-4.45,.85-8.43,0-11.96-2.55-3.46-2.49-5.61-5.96-6.46-10.42-.86-4.47-.14-8.51,2.16-12.11,2.34-3.68,5.73-5.95,10.18-6.8,4.42-.84,8.4,.01,11.95,2.57,3.48,2.53,5.65,6.01,6.49,10.46Zm-8.19,1.52c-.41-2.16-1.42-3.87-3.02-5.13-1.67-1.32-3.57-1.78-5.7-1.37-2.03,.39-3.59,1.54-4.69,3.45-1.06,1.84-1.4,3.79-1.01,5.85,.42,2.2,1.41,3.91,2.97,5.14,1.64,1.28,3.56,1.71,5.73,1.3,2.03-.39,3.6-1.53,4.71-3.43,1.06-1.81,1.39-3.75,.99-5.8Z"/><path class="cls-9" d="M262.51,318.65c-.81,.3-2.04,.72-3.69,1.25-1.65,.53-2.88,.94-3.69,1.25-1.15,.43-2.88,1.07-5.18,1.9-2.3,.83-4.03,1.47-5.18,1.9-.49,.19-.83,.13-1.02-.16-.36-.87-.99-2.12-1.88-3.75-.42-.61-.64-.96-.67-1.04-.03-.07,.65-3.36,2.04-9.86,1.39-6.51,2-9.96,1.85-10.36-.08-.22-.3-.26-.66-.13-.96,.36-2.4,.93-4.32,1.72-1.92,.78-3.37,1.36-4.34,1.73-.3,.11-.51,.01-.63-.3-.19-.51-.41-1.55-.65-3.14-.24-1.58-.49-2.7-.74-3.36-.08-.22,.06-.4,.43-.54,1.89-.71,4.75-1.74,8.57-3.08,3.82-1.34,6.68-2.37,8.57-3.08,.29-.11,.53-.02,.73,.26,.66,1,1.37,2.53,2.14,4.57,.09,.25,.08,.6-.02,1.07-.39,1.57-1.17,5.01-2.34,10.32-1.32,6.05-1.94,9.2-1.85,9.43,.04,.11,.18,.12,.41,.03,2.78-1.05,4.9-1.91,6.35-2.58,.3-.13,.92-.46,1.88-.99,.81-.46,1.42-.77,1.83-.92,.19-.07,.34,.04,.45,.32,.84,2.24,1.48,4.54,1.92,6.91,.06,.32-.06,.54-.34,.65Z"/><path class="cls-9" d="M287.49,297.45c.3,.55,.76,1.62,1.36,3.22,.66,1.73,.98,2.8,.98,3.2-.02,.33-.16,.57-.43,.72-.12,.06-.32,.15-.61,.26-1.01,.39-3.77,1.84-8.29,4.35-.99,.55-2.46,1.35-4.41,2.42s-3.42,1.87-4.39,2.41c-.42,.23-.74,.17-.94-.21-.79-1.43-1.91-3.63-3.35-6.6-1.44-2.96-2.55-5.16-3.35-6.6-.81-1.46-2.4-4.14-4.76-8.04-.61-1-1.53-2.49-2.76-4.47l-.17-.26c-.19-.28-.11-.52,.23-.71,.95-.53,2.39-1.29,4.32-2.3,1.93-1,3.37-1.77,4.32-2.3,.93-.52,2.33-1.33,4.18-2.42,1.85-1.1,3.25-1.9,4.18-2.42,.67-.37,1.19-.33,1.57,.11,.23,.26,.82,1.1,1.79,2.52,.96,1.42,1.53,2.29,1.71,2.61,.15,.27,.1,.47-.16,.62-.08,.04-.21,.11-.41,.21-3.56,1.61-6.7,3.17-9.42,4.68-.68,.38-1.01,.77-.98,1.17,.02,.19,.26,.7,.72,1.53,.48,.87,.93,1.38,1.34,1.52,.35,.12,.84,.01,1.45-.33,.13-.07,.37-.22,.73-.45,.36-.23,.66-.41,.91-.54,1.61-.9,3.22-1.85,4.82-2.85,.13-.09,.47-.32,1-.68,.41-.29,.74-.51,1-.65,.31-.17,.54-.11,.71,.19-.15-.27,.28,.77,1.29,3.13,.47,1.08,.98,2.13,1.55,3.16,.14,.26,.03,.49-.34,.69l-1.84,.77c-.77,.33-2.46,1.21-5.06,2.66l-2.04,1.13c-.53,.29-.76,.59-.71,.9,.02,.07,.24,.47,.64,1.2,.54,.97,.95,1.57,1.24,1.78,.49,.37,1.47,.2,2.94-.5-.03,.01,.91-.5,2.8-1.56,.68-.38,1.65-1,2.92-1.86,1.27-.86,2.24-1.48,2.9-1.85,.28-.16,.55,0,.81,.46Z"/><path class="cls-9" d="M320.23,280.37c.17,.21,.13,.46-.09,.77-.27,.37-1.3,1.26-3.09,2.68-1.64,1.31-2.73,2.1-3.27,2.38-.45,.23-.91,.17-1.36-.18-1.7-1.34-2.71-1.98-3.02-1.92-.25,.07-1.81,1.25-4.7,3.55-1.95,1.55-2.94,2.43-2.99,2.63-.05,.34,.22,1.12,.81,2.36,.54,1.13,.69,1.85,.44,2.18-.32,.4-1.59,1.49-3.81,3.26-1.75,1.4-2.76,1.93-3.03,1.6-.24-.3-1.86-4.99-4.86-14.08-3.24-9.83-5.05-15.22-5.41-16.17-.21-.54-.22-.89-.04-1.04,.31-.25,.81-.6,1.5-1.06,.69-.46,1.2-.81,1.52-1.07,.31-.25,.75-.63,1.32-1.15,.57-.52,1-.9,1.3-1.13,.22-.17,.57-.14,1.05,.09,1.52,.76,6.44,3.58,14.77,8.46,8.38,4.92,12.69,7.54,12.93,7.84Zm-24.66-5.95c.16,.7,.62,2.11,1.4,4.25,.8,2.28,1.33,3.58,1.58,3.88,.17,.21,.6,.05,1.31-.48,.37-.26,.97-.71,1.78-1.36,.76-.6,1.1-1.03,1.04-1.28-.02-.08-.08-.16-.16-.27-.3-.38-1.39-1.21-3.28-2.5-1.83-1.24-3.05-1.99-3.65-2.26Z"/><path class="cls-9" d="M322.73,233.11c1.27,1.09,3.12,2.77,5.57,5.06,2.45,2.29,4.31,3.98,5.59,5.08l10.99,9.43c.3,.26,.31,.55,.04,.87-.23,.27-.56,.68-1,1.24-.44,.56-.77,.97-1,1.24-.25,.29-.64,.7-1.18,1.24s-.94,.95-1.18,1.24c-.17,.2-.56,.28-1.17,.24-1.77-.12-5.7-.38-11.81-.75-1.69-.12-4.22-.26-7.57-.42-.1-.01-.24,.01-.42,.08,0,.16,.09,.3,.25,.45,1.29,1.11,3.25,2.73,5.89,4.87,2.64,2.14,4.61,3.77,5.89,4.87,.39,.33,.46,.65,.2,.95l-4.95,5.77c-.28,.32-.59,.34-.93,.04-1.2-1.03-2.96-2.64-5.28-4.84-2.32-2.2-4.09-3.82-5.3-4.86-1.28-1.1-3.24-2.69-5.87-4.77-2.64-2.08-4.59-3.66-5.85-4.75-.24-.21-.18-.53,.19-.96,.55-.65,1.19-1.48,1.91-2.5,.17-.24,.47-.74,.91-1.5,.38-.64,.7-1.12,.98-1.45,.11-.13,.48-.18,1.1-.13l13.86,1.1c1.24,.1,3.09,.23,5.53,.37,.58,.02,.96-.07,1.13-.27,.12-.14-.25-.59-1.11-1.33-1.17-1-2.98-2.45-5.43-4.33-2.45-1.89-4.27-3.33-5.45-4.35-.41-.35-.52-.65-.32-.88,.57-.67,1.41-1.7,2.51-3.09s1.94-2.42,2.51-3.09c.18-.21,.45-.17,.79,.13Z"/></g><path class="cls-7" d="M41.22,147.8c8.78-45.59,41.77-86.59,87.13-104.59,57.73-23,126.8-6,165.98,44,14.43,20,22.44,43,23.83,66.82,.42,6.5-1.26,36.59-3.74,34.14"/><g><path class="cls-10" d="M27.7,155.89s34.9-15.03,41.57,40.3c6.18,51.25,98.13,87.66,87.68,92.27,0,0-119.81-32.24-134.31-73.55-14.15-40.29,5.06-59.02,5.06-59.02Z"/><path class="cls-2" d="M62.53,251.62c.05-.34,.68-.76,.72-.42,.26,2.2,33.1,16.58,41.46,18.39,4.9,1.05-3.95,2.71-1.68,10.26s1.88,25.97,1.31,27.17c-.57,1.19-5.86,10.28-12.88,6.86-7.02-3.42-25.05-15.27-27.98-28.31-2.93-13.04-4.87-20.5-3.25-24.22,1.31-3.01,2.07-7.94,2.31-9.72Z"/><path class="cls-2" d="M30.44,154.06s42.71-25.26,68.02-8.38c24.1,16.07,41.85,60.18,54.46,66.77,12.61,6.59,45.79,31.32,79.96,18.63,34.17-12.69,48.68-27.09,48.68-27.09,0,0,9.67-13.72,9.11-19.22-.56-5.49,7.74-13.37,7.74-13.37,0,0,22.48-9.41,18.21,2.89-.78,2.23-2.38,4.78-2.71,6.64-1.28,7.33,1.27,11.14,8.33,8.77,3.28-1.11,6.78-.72,8.38-3.11,9.68-14.41,19.45-12.67,15.7,3.19-1.06,4.5-6.89,16.63-13.53,18.04-6.83,1.46-31.36,19.77-36.94,27.91-5.57,8.14-18.83,36.96-48.33,46.6-29.5,9.65-56.04,16.1-87.07,4.63-30.36-11.22-61.57-36.26-61.57-36.26,0,0-27.17-28.46-30.14-36.77-2.97-8.31-4.2-34.3-4.2-34.3,0,0-11.35-15.11-15.55-18.24-4.2-3.14-18.57-7.35-18.57-7.35Z"/><path class="cls-9" d="M23.7,157.47c-8.38,15.72-10.14,34.61-4.68,51.59,4.91,15.26,15.34,28.41,28.51,37.43,3.2,2.19,6.66,3.85,9.97,5.85,1.11,.67,2.22,1.41,3.41,1.95,1.89,.86,3.91-.46,2.96-2.61-.41-.93-1.76-1.13-2.57-.67-.96,.55-1.08,1.64-.67,2.57l.03,.07-.26-.95v.05c.09-.32,.17-.63,.26-.95l-.02,.03,1.12-.86s1.03-.18,.71-.05c.06-.03,.29,.19,.12,.04-.15-.13-.41-.21-.59-.31-.49-.27-.98-.56-1.46-.85-.85-.51-1.69-1.05-2.57-1.51-3.29-1.71-6.48-3.56-9.51-5.71-5.84-4.13-11.11-9.19-15.45-14.89-9.28-12.17-14.14-27.16-13.3-42.48,.5-9.02,2.97-17.88,7.22-25.85,1.14-2.13-2.1-4.03-3.24-1.89h0Z"/><path class="cls-9" d="M106.45,269.64c-2.31,3.25-4.25,6.85-4.97,10.82-.78,4.3-.25,8.6,.69,12.83s2.37,8.54,1.62,12.79c-.54,3.08-2.19,6.34-5.17,7.7-3.96,1.81-8.35-.68-11.76-2.59-3.71-2.08-7.34-4.39-10.5-7.27-6.36-5.78-10.34-14.11-12.27-22.38-1.01-4.35-1.69-8.77-1.91-13.23s-.04-8.78,1.26-12.96c.72-2.31-2.9-3.3-3.62-1-2.53,8.16-1.55,17.36,.09,25.59,1.77,8.92,5.46,17.92,11.76,24.63,3.12,3.32,6.88,6.03,10.76,8.38,3.97,2.4,8.48,5.21,13.28,5.18,4.05-.02,7.54-2.29,9.64-5.69s2.65-7.66,2.14-11.7c-.7-5.52-2.79-10.82-2.67-16.44,.11-4.79,2.13-8.94,4.86-12.78,1.4-1.97-1.85-3.85-3.24-1.89h0Z"/><path class="cls-9" d="M27.93,157.41c10.78-8.51,24.31-13.72,37.83-15.71,7.07-1.04,14.48-1.17,21.47,.4s12.93,4.91,18.09,9.66c10.11,9.3,16.9,21.81,24.24,33.26,7.47,11.66,15.61,23.02,26.66,31.57,21.5,16.63,50.3,22.36,76.69,16.41,13.26-2.99,25.97-8.81,36.82-17.01,2.23-1.69,4.3-3.6,6.46-5.34,.88-.71,1.88-1.29,2.78-1.96,3.66-2.71,7.25-5.67,9.98-9.34,1.22-1.63,2.26-3.48,2.53-5.52,.21-1.63-.22-3.17-.32-4.78-.18-2.96,.24-6.08,1.59-8.75s3.19-4.81,5.27-6.81c3.38-3.24,8.35-5.09,13.07-4.92,1.82,.07,3.35,.54,4.11,2.32,1.12,2.6,.33,5.17-.63,7.69-.84,2.18-2.06,4.28-2.67,6.54-.69,2.56,.39,5.32,2.6,6.8,.98,.65,2.19,1.02,3.37,.77,1.26-.27,2.29-1.31,3.44-1.89,1.37-.69,2.84-1.18,4.33-1.53,1.26-.3,2.57-.37,3.79-.83,2.06-.77,4.47-2.21,6.02-3.77,1.36-1.37,2.23-3.15,3.39-4.68s2.53-2.64,4.5-2.57c1.62,.06,2.41,.55,2.86,2.04,1.15,3.86-.34,8.67-1.48,12.35-1.01,3.28-2.22,7.7-4.7,10.08-2.99,2.87-7.19,4.65-10.93,6.29-3.32,1.45-6.73,2.72-10.16,3.87-3.62,1.21-6.67,4.38-9.39,6.97-4.13,3.94-7.78,8.34-11.21,12.88-6.91,9.13-12.85,18.98-20.18,27.78-3.56,4.28-7.46,8.34-11.89,11.73s-8.89,5.61-13.71,7.79c-10.94,4.95-22.24,9.16-34.21,10.62-30.9,3.79-61.84-2.21-90.87-12.74-5.41-1.96-12.27-3.59-16.14-8.16-1.56-1.85-4.2,.82-2.65,2.65,4.08,4.82,10.94,6.61,16.65,8.71,7.54,2.77,15.19,5.25,22.95,7.34,15.11,4.07,30.67,6.66,46.32,7.07,13.91,.36,28.22-.6,41.48-5.01,5.9-1.96,11.7-4.28,17.38-6.81,5.02-2.24,9.92-4.66,14.34-7.97,18.86-14.12,27.56-37.2,44.39-53.23,2.03-1.93,4.23-4.13,6.65-5.55,.3-.17,1.36-.54,1.94-.74,3.85-1.32,7.65-2.79,11.36-4.47s7.98-3.66,10.89-6.72c2.71-2.84,4.04-7.37,5.2-11.02,1.37-4.33,2.62-9.25,1.8-13.81s-4.89-6.63-9.21-5.38c-2.13,.62-3.73,2.14-5.03,3.87-1.07,1.42-1.88,3.26-3.25,4.42-1.61,1.36-3.8,2.66-5.91,3.02-3.01,.52-6.13,1.39-8.69,3.13-.37,.25-.66,.63-1.02,.56-.46-.09-.93-.72-1.14-1.09-.56-.97-.33-1.58,.03-2.6,.9-2.48,2.16-4.8,2.97-7.32,1.5-4.69,.71-11.31-4.87-12.76-4.64-1.21-10.45,.33-14.57,2.52-2.12,1.13-3.92,2.96-5.54,4.71-2.1,2.28-3.9,4.82-5.06,7.7s-1.49,5.95-1.32,8.9c.1,1.66,.62,2.96,.33,4.55-.35,1.93-1.8,3.68-3.07,5.1-1.6,1.8-3.4,3.41-5.26,4.94-2.61,2.13-5.35,4-7.92,6.18-5.3,4.49-11.14,8.33-17.31,11.5-25.02,12.86-55.31,13.75-80.75,1.5-12.75-6.14-23.24-15.31-31.7-26.6s-15.27-24.06-23.71-35.54c-4.04-5.5-8.51-10.7-13.97-14.83-5.78-4.38-12.51-7.04-19.68-8.06-14.05-2-28.77,1.08-41.68,6.65-6.23,2.69-12.09,6.11-17.42,10.32-1.89,1.49,.78,4.13,2.65,2.65h0Z"/></g><path class="cls-4" d="M284.26,185.22c-.34,1.87-5.28,13.79-13.62,18.72-7.41,4.38-1.66-50.95-.28-63.41,.16-1.45-.69-2.81-2.06-3.31l-22.6-8.16c-1.28-.46-2.64,.49-2.64,1.85v13.3c0,1,.97,1.72,1.93,1.42l5.15-1.6c.88-.27,1.77,.38,1.77,1.3v67.63s-7.4,9.34-25.79,7.05v-62.07c0-1.81-1.47-3.28-3.28-3.28h-16.05c-1.78,0-3.22,1.44-3.22,3.22v67.33"/><path class="cls-4" d="M206,223.83s-21.86,1.25-25.65-8.74v-37.14c0-1.28-.75-2.43-1.91-2.95l-16.32-7.32c-1.07-.48-2.27,.3-2.27,1.47v33.26s-10.55-6.98-12.94-19.06v-51.84c0-1.03-.41-2.01-1.13-2.74l-13.71-13.71c-1.79-1.79-4.84-.52-4.84,2.01v42.12s-.91-8.17-13.5-17.53c-12.6-9.36-39.83-18.09-56.85-11.11"/><path class="cls-3" d="M127.35,127.75c-1.1-3.13-3.81-5.36-7.17-5.55-1.5-.08-3.12,.38-4.39,1.17-.64,.4-1.25,.89-1.75,1.45-.28,.32-.55,.67-.79,1.03-.09,.14-.18,.28-.25,.42-.23,.38-.17,.34,.17-.11l1.26-.34-.34-.04,1.26,.34c-.69-.4-1.25-1-1.97-1.38-.78-.41-1.63-.74-2.49-.92-1.63-.34-3.39-.31-4.97,.25-3.14,1.11-5.63,3.87-6.21,7.19-.23,1.33,.36,2.69,1.75,3.08,1.2,.33,2.84-.41,3.08-1.75,.3-1.73,1.32-3.25,3.03-3.8,.87-.28,1.78-.24,2.64,.02,1.05,.32,1.68,1.12,2.61,1.63,1.65,.89,3.42,.09,4.35-1.39,.44-.69,.77-1.27,1.56-1.62,1.45-.63,3.24,.08,3.78,1.65,.45,1.27,1.71,2.12,3.08,1.75,1.24-.34,2.19-1.79,1.75-3.08h0Z"/><path class="cls-3" d="M101.67,131c.5,.73,1,1.47,1.5,2.2,.57,.84,1.45,1.35,2.49,1.19,.92-.14,1.89-.82,2.08-1.79-.04,.22-.5,.59-.69,.65-.14,.04-.39-.06-.5-.02-.19,.08-.13-.55,.02,.17-.06-.31,.18,.57,.16,.49,.66,2.27,4.29,2.49,4.82,0,.28-1.3,.27-2.47,.08-3.77-.14-.95-1.21-1.69-2.08-1.79-1.05-.13-1.89,.34-2.49,1.19s-1.15,1.62-1.72,2.43l3.93-.51c-.46-.37-.47-.4-.57-.83l-1.15,2.82c.25-.13,.49-.2,.75-.2,.58-.01,.52-.03,1.16,.21-.35-.13,.35,.19,.36,.2,.37,.22,0-.07,.33,.25,.05,.05,.43,.48,.32,.34-.15-.21,.32,.74,.17,.31,.43,1.16,1.45,1.99,2.74,1.79,1.13-.17,2.28-1.2,2.17-2.46-.03-.32-.06-.63-.09-.95-.26-2.88-3.86-3.31-4.91-.66-.54,1.35-1.16,2.67-1.82,3.97l3.93-.51c-.67-.71-1.17-1.47-1.61-2.34l-3.93,3.03c1.45,1.44,3.19,3.33,5.32,1.74,.71-.53,1.06-1.35,1.46-2.11,.44-.84,.89-1.67,1.33-2.51l-4.57-.6c.47,1.6,.95,3.21,1.42,4.81,.35,1.18,1.51,1.98,2.74,1.79,1.33-.2,2-1.18,2.17-2.46,.27-2.03,.32-4.06,.15-6.1l-4.91,.66c.44,1.59,.88,3.18,1.32,4.76,.77,2.78,4.77,2.12,4.91-.66,.07-1.43,.14-2.87,.21-4.3l-4.66,1.26c.39,.86,.58,1.81,.7,2.74,.15,1.07,1.42,1.84,2.41,1.84,1.19,0,1.99-.8,2.41-1.84,.61-1.49,1.1-3.02,1.46-4.6l-4.91-.66,.03,1.56c.07,3.21,4.98,3.23,5,0,0-1.78,.37-3.51,1.16-5.11h-4.32c.44,.61,.82,1.23,.89,2,.12,1.24,.86,2.3,2.17,2.46,1.17,.14,2.47-.56,2.74-1.79,.07-.32,.14-.64,.21-.96h-4.82c.56,2.62,1.07,5.25,1.54,7.89,.5,2.82,4.91,2.09,4.91-.66,0-1.77-.18-3.53-.47-5.28-.46-2.75-5.24-2.14-4.91,.66,.29,2.46,.65,4.9,1.11,7.33l4.57-1.93c-.3-.5-.6-.99-.89-1.49-1.27-2.12-4.65-1.23-4.66,1.26-.01,3.79,.48,7.58,1.46,11.25l4.57-1.93c-1.63-3.74-3.55-7.33-5.75-10.76-1.4-2.18-4.44-1.18-4.66,1.26s.42,4.73,1.73,6.68c.69,1.03,1.94,1.54,3.12,1.02,1.06-.46,1.88-1.76,1.45-2.95-.63-1.7-1.39-3.33-2.36-4.85l-4.32,2.52c.52,.77,1.05,1.54,1.57,2.31,1.62,2.39,5.08,.88,4.57-1.93-.38-2.09-1.17-4.08-2.27-5.9-.71-1.16-2.23-1.58-3.42-.9-.97,.55-1.72,1.31-2.29,2.27l3.42-.9c-.28-.15-.62-.31-.81-.56-.75-1-1.89-1.56-3.12-1.02-1.16,.51-1.73,1.7-1.45,2.95,.5,2.19,1.62,4.15,3.18,5.76l3.54-3.54c-.36-.31-.72-.62-1.09-.93l-3.54,3.54c1.19,.94,2.36,1.63,3.79,2.18,1.18,.46,2.85-.51,3.08-1.75,.5-2.76,1-5.51,1.5-8.27,.24-1.33-.36-2.7-1.75-3.08-1.21-.33-2.83,.41-3.08,1.75-.5,2.76-1,5.51-1.5,8.27l3.08-1.75c-.53-.21-1.13-.53-1.58-.89-1.06-.84-2.5-1.03-3.54,0-.9,.9-1.03,2.65,0,3.54,.36,.31,.72,.62,1.09,.93,1.02,.88,2.53,1.01,3.54,0s.95-2.57,0-3.54-1.58-2.17-1.89-3.55l-4.57,1.93c.73,.97,1.52,1.78,2.6,2.35,1.2,.63,2.71,.31,3.42-.9,.21-.35,.13-.27,.49-.47l-3.42-.9c.9,1.48,1.45,3,1.76,4.7l4.57-1.93c-.52-.77-1.05-1.54-1.57-2.31-.76-1.12-2.2-1.61-3.42-.9-1.13,.66-1.63,2.28-.9,3.42s1.38,2.37,1.86,3.66l4.57-1.93c-.88-1.31-1.19-2.59-1.05-4.16l-4.66,1.26c2.2,3.43,4.13,7.02,5.75,10.76,.49,1.13,2.1,1.47,3.12,1.02,1.13-.5,1.78-1.72,1.45-2.95-.87-3.26-1.29-6.55-1.28-9.92l-4.66,1.26c.3,.5,.6,.99,.89,1.49,1.51,2.53,5.08,.79,4.57-1.93-.38-1.99-.69-3.99-.93-6l-4.91,.66c.22,1.31,.3,2.62,.29,3.95l4.91-.66c-.46-2.64-.97-5.27-1.54-7.89-.51-2.39-4.3-2.38-4.82,0-.07,.32-.14,.64-.21,.96l4.91,.66c-.16-1.64-.59-3.17-1.57-4.52s-3.41-1.84-4.32,0c-1.18,2.4-1.83,4.95-1.84,7.63h5l-.03-1.56c-.06-2.74-4.27-3.49-4.91-.66-.36,1.58-.84,3.1-1.46,4.6h4.82c-.19-1.4-.63-2.66-1.21-3.94-.44-.99-1.84-1.42-2.82-1.15-1.09,.3-1.78,1.31-1.84,2.41-.07,1.43-.14,2.87-.21,4.3l4.91-.66c-.44-1.59-.88-3.18-1.32-4.76-.73-2.63-5.15-2.22-4.91,.66,.17,2.04,.12,4.07-.15,6.1l4.91-.66c-.47-1.6-.95-3.21-1.42-4.81-.59-1.98-3.53-2.55-4.57-.6-.35,.66-.7,1.31-1.05,1.97-.16,.3-.32,.6-.48,.9l-.19,.36c-.33,.54-.23,.49,.28-.13l1.93-.25-.27-.07,1.1,.64c-.57-.47-1.07-1.03-1.59-1.55-2.07-2.06-5.18,.54-3.93,3.03,.62,1.23,1.44,2.35,2.39,3.35,1.06,1.12,3.2,.91,3.93-.51,.86-1.68,1.62-3.41,2.32-5.16l-4.91-.66c.03,.32,.06,.63,.09,.95l4.91-.66c-1.54-4.2-6.43-6.2-10.44-4.09-1.01,.53-1.39,1.77-1.15,2.82,.27,1.17,.92,2.29,1.86,3.03,1.33,1.06,2.92,.92,3.93-.51,.57-.81,1.15-1.62,1.72-2.43l-4.57-.6c.05,.36,0,.76-.08,1.12h4.82c-.55-1.9-1.73-3.71-3.78-4.19s-4.43,.75-4.85,2.88l4.57-.6c-.5-.73-1-1.47-1.5-2.2-.76-1.11-2.2-1.61-3.42-.9-1.11,.65-1.66,2.3-.9,3.42h0Z"/><path class="cls-3" d="M182.04,213.96c.67-.57,.88-.78,1.65-1.26,.19-.12,.38-.23,.58-.34,.04-.02,.53-.26,.3-.16-.27,.12,.49-.16,.43-.14,.11-.03,.78-.1,.33-.08,.17,0,.34-.01,.5,0-.39-.03,.02,.03,.09,.04,.55,.12-.11-.17,.1,.03,.12,.11,.32,.18,.45,.27-.41-.29,.15,.19,.27,.32-.32-.35-.02-.02,.06,.1,.12,.19,.23,.38,.33,.57,.06,.11,.23,.56,.06,.12,.05,.14,.1,.28,.15,.43,.09,.29,.17,.58,.23,.87,0-.01,.14,.71,.07,.33s.05,.38,.05,.37c.09,.71,.2,1.31,.5,1.96,.51,1.09,1.44,1.73,2.53,2.16,.35,.14,.71,.25,1.07,.37,.4,.13,.97,.31,1.15,.39,.21,.09,.4,.21,.59,.32,.06,.04,.35,.28,.09,.05,.12,.1,.25,.22,.35,.35-.32-.39,.14,.3,0,0l-.03-.08c.08,.3,.09,.31,.04,.01-.1,.06,.37-.6,0-.04,.29-.45,.03-.07-.01-.02,.17-.19,.29-.34,.55-.4,.41-.1,.72,.17,.18-.16-.36-.22-.71-.47-1.06-.71-.78-.53-1.56-1.06-2.34-1.59-.03-.02-.37-.28-.12-.08-.13-.11-.27-.22-.39-.34-.16-.15-.31-.3-.45-.46-.27-.31,.19,.42-.14-.21-.08-.15-.16-.29-.24-.44-.03-.05-.17-.44-.05-.1-.15-.4-.27-.81-.38-1.22-.51-1.9-1.02-4.84-3.62-4.72-1.44,.06-2.61,1.05-3.01,2.43-.33,1.16-.14,2.46,.17,3.6s.76,2.23,1.49,3.12c.86,1.04,2.36,1.75,3.7,1.21,1.08-.44,1.78-1.21,1.84-2.41,.03-.58,.06-1.15,.08-1.73,.06-1.31-1.19-2.56-2.5-2.5-1.41,.06-2.43,1.1-2.5,2.5-.03,.58-.06,1.15-.08,1.73l1.84-2.41,1.48,.43-.17-.17,.12,.12-.13-.25s-.18-.39-.09-.17c-.09-.22-.16-.44-.22-.67-.05-.18-.1-.36-.13-.55-.01-.06-.08-.49-.07-.36,.02,.23-.04-.54-.03-.1-.04,.16-.04,.17,0,.03,.19-.62-.19-.27-1.12,1.05h-1.33c-1.77-.37-1.22-1.7-1.07-.86,.04,.21,.12,.42,.18,.62,.09,.33,.17,.67,.26,1,.24,.92,.52,1.81,.92,2.67,.75,1.6,2.03,2.71,3.45,3.7,.66,.46,1.34,.91,2.01,1.36,.82,.56,1.64,1.18,2.61,1.45,1.97,.55,4-.44,4.88-2.26,.95-1.98,.38-4.22-1.14-5.74-1.29-1.29-3.07-1.87-4.77-2.39-.62-.19-.18-.11-.13,0,.02,.05,.16,.23,.2,.25,.19,.08-.05-.29,0-.06,.08,.33-.05-.38-.05-.37-.11-.82-.24-1.63-.51-2.41-.5-1.43-1.25-2.81-2.42-3.8-1.68-1.41-3.88-1.88-6-1.28-1.98,.55-3.63,1.87-5.16,3.18-1.02,.88-.9,2.63,0,3.54,1.02,1.02,2.51,.88,3.54,0h0Z"/><path class="cls-3" d="M218.42,152.03v-24.38c0-.25-.09-.78-.03-.98,.17-.57,.88-.4,1.44-.4h3.9c1.5,0,3,0,4.5,0,.73,0,1.87-.22,2.57,0,.41,.13,.29,.52,.29,.99v69.2c0,7.06-.18,14.14,0,21.2,0,.11,0,.21,0,.32,0,3.22,5,3.22,5,0v-87.16c0-2.21,.42-5.21-.83-7.14-1.89-2.92-5.38-2.42-8.37-2.42-2.64,0-5.28-.06-7.91,0-3.45,.07-5.57,2.7-5.57,6.01v24.75c0,3.22,5,3.22,5,0h0Z"/><path class="cls-3" d="M202.64,162.63h-6.35c-1.06,0-2.11-.07-3.12,.33-1.7,.68-2.66,2.27-2.73,4.06-.1,2.62,0,5.26,0,7.88v40.16c0,3.22,5,3.22,5,0v-47.16c0-.11,.09-.82,0-.9,.19,.17-.63,.75-.66,.63,0,.04,.9,0,.96,0h6.91c3.22,0,3.22-5,0-5h0Z"/><path class="cls-3" d="M194.93,221.44c0-1.15,0-2.3,0-3.45,0-.64-.28-1.31-.73-1.77-.23-.24-.49-.42-.8-.52-.3-.16-.62-.23-.96-.22-.65,.03-1.32,.24-1.77,.73s-.73,1.09-.73,1.77c0,1.15,0,2.3,0,3.45,0,.64,.28,1.31,.73,1.77,.23,.24,.49,.42,.8,.52,.3,.16,.62,.23,.96,.22,.65-.03,1.32-.24,1.77-.73s.73-1.09,.73-1.77h0Z"/><path class="cls-3" d="M147.24,146.44c6.72,0,13.45,0,20.17,0,3.22,0,3.22-5,0-5-6.72,0-13.45,0-20.17,0-3.22,0-3.22,5,0,5h0Z"/><path class="cls-3" d="M165.42,143.94v23.41c0,3.22,5,3.22,5,0v-1.2c0-3.22-5-3.22-5,0v1.2c0,3.22,5,3.22,5,0v-23.41c0-3.22-5-3.22-5,0h0Z"/><path class="cls-3" d="M271.45,169.8c.76-1.54,2.58-2.29,4.14-1.43s2.65,2.92,1.2,4.32c-1.15,1.11-.3,3.25,1.33,3.2,2.18-.07,4.27,.78,5.73,2.42,.55,.62,1.31,1.62,1.15,2.51-.09,.49-1.05,2.08-1.51,2.07-2.41-.03-2.41,3.72,0,3.75,2.07,.03,3.53-1.71,4.5-3.35,1.17-1.98,.87-4.24-.33-6.13-2.03-3.2-5.75-5.14-9.53-5.02l1.33,3.2c3.13-3.03,1.72-7.97-1.73-10.08-3.25-1.99-7.8-.83-9.51,2.64-.45,.91-.25,2.03,.67,2.57,.83,.48,2.12,.24,2.57-.67h0Z"/><path class="cls-3" d="M269.94,168.81c-.43,1.26-.67,2.54-.82,3.87-.1,.91,.79,1.74,1.63,1.84,.99,.12,1.71-.45,2.06-1.34l-.42,.56-2.31-1.31c.35,1.03,.69,2.06,1.04,3.09,.63,1.87,2.92,1.67,3.62,0,.63-1.5,1.08-3.04,1.38-4.64l-3.43,.45v.05c1.2-.33,2.41-.66,3.61-1-.22-.91-.59-1.76-1.1-2.54-.76-1.17-2.5-1.26-3.24,0-.46,.77-.8,1.59-1.03,2.46-.64,2.39,2.74,3.18,3.62,1-1.4-.21-1.98,.03-1.75,.71,.07,.26,.13,.51,.2,.77,.12,.46,.23,.93,.35,1.39,.27,1.08,.54,2.16,.81,3.24l3.62-1c-.42-1.31-.7-2.64-.8-4.01l-3.68,.5c.04,.19,.09,.38,.13,.57,.21,.91,1.18,1.46,2.06,1.34,1-.13,1.51-.9,1.63-1.84,.14-1.1,.28-2.2,.42-3.3l-3.68,.5c.18,1.19,.35,2.37,.53,3.56,.31,2.07,3.92,1.6,3.68-.5-.1-.94-.26-1.82-.56-2.72-.64-1.89-3.85-1.73-3.68,.5,.29,3.82,.09,7.64-.67,11.4h3.62c-.37-1.49-.74-2.99-1.11-4.48-.33-1.33-.59-2.71-1.4-3.85-.94-1.31-2.9-1.16-3.43,.45-1.11,3.38-1.36,6.94-1.58,10.46l3.68-.5c-.41-2.06-.72-4.13-.92-6.22-.23-2.36-3.86-2.45-3.75,0l.36,7.75c.11,2.4,3.68,2.42,3.75,0,.13-4.39,.48-8.77,1.05-13.13h-3.75c-.31,3.12-.62,6.24-.93,9.35l3.68-.5c-.37-1.89-.54-3.78-.55-5.7-.01-2.42-3.7-2.41-3.75,0-.1,5-.21,10.01-.31,15.01-.04,2.05,3.4,2.63,3.68,.5l.71-5.29-3.68-.5c.42,3.91,.28,7.83,.11,11.75-.04,1.01,.89,1.88,1.88,1.88,1.11,0,1.75-.86,1.88-1.88,.32-2.71,.65-5.42,.97-8.13h-3.75c-.34,3.61-.39,7.23-.18,10.85h3.75c-.24-2.43-.33-4.86-.27-7.3,.05-2.1-3.17-2.56-3.68-.5-.59,2.4-1.19,4.8-1.78,7.2l3.68,.5c.43-5.05,1.2-10.04,2.29-14.99h-3.62c.89,2.35,.46,4.75-.01,7.15l3.68,.5c.25-2.09,.57-4.18,.93-6.26h-3.62c.8,2.4,.2,5.41-.01,7.89-.24,2.86-.51,5.72-.76,8.58l3.68-.5c-.92-4.17-.68-8.42,.61-12.48l-3.68-.5c.35,2.61,.42,5.22,.23,7.84-.07,1.01,.91,1.88,1.88,1.88,1.12,0,1.75-.87,1.88-1.88,.72-5.68,1.44-11.36,2.15-17.04l-3.68,.5c.81,5.92,1.62,11.84,2.43,17.77,.3,2.2,3.56,1.48,3.68-.5,.16-2.47-.54-5.09-.9-7.52-.39-2.63-.78-5.25-1.17-7.88-.27-1.81-3.31-1.77-3.62,0-.6,3.43-1.1,6.88-1.52,10.34h3.75c-.07-1.14,.11-2.12,.53-3.18h-3.62c.43,3.01,.86,6.02,1.29,9.04,.3,2.08,3.82,1.6,3.68-.5-.2-3.07-.13-6.17,.28-9.23h-3.62c.29,1.03,.58,2.06,.88,3.1,.6,2.12,3.52,1.56,3.68-.5,.33-4.09,.42-8.28,1.42-12.27h-3.62c.55,1.72,.34,3.73,.36,5.52,.03,2.08,.04,4.16,.04,6.24,0,2.41,3.74,2.42,3.75,0,.03-4.84,.43-9.67,1.25-14.44l-3.68-.5c.12,2.83,.03,5.66-.28,8.48h3.75c-.25-3.04-.65-6.07-1.19-9.08-.32-1.78-3.31-1.8-3.62,0-.35,2.1-.71,4.19-1.06,6.29l3.68,.5c-.08-2.01-.18-4.05,.16-6.04h-3.62c.66,2.02,1.31,4.04,1.97,6.06,.6,1.86,2.95,1.69,3.62,0,.26-.67,.52-1.33,.79-2,.12-.3,.23-.59,.35-.89l.17-.44c.22-.42,.04-.36-.54,.18l-1.44-.19c-.46-.33-.3-.37-.26,.11,.03,.34,.2,.71,.27,1.05,.14,.62,.24,1.23,.31,1.86,.24,2.37,3.95,2.42,3.75,0-.11-1.34-.08-2.66,.17-3.98h-3.62c.58,1.66,.66,3.25,.16,4.94l3.68,.5c0-.18,0-.36,.01-.54,.05-2.11-3.15-2.55-3.68-.5-.62,2.39-1.58,4.59-2.88,6.69l3.43,1.44c.32-2.31,.93-4.53,1.84-6.69l-3.68-.5c-.04,.77-.11,1.52-.27,2.28-.06,.3-.14,.61-.22,.91-.06,.23-.13,.45-.2,.67-.17,.43-.03,.34,.45-.26l2.57,.67-.06-.1-.67,2.57,.07-.05c2.02-1.31,.14-4.56-1.89-3.24l-.07,.05c-.85,.55-1.2,1.65-.67,2.57l.06,.1c.53,.91,1.67,1.13,2.57,.67,1.02-.52,1.28-1.87,1.53-2.88,.33-1.29,.5-2.62,.57-3.95,.05-.92-.75-1.74-1.63-1.84-1-.12-1.68,.46-2.06,1.34-.91,2.15-1.52,4.37-1.84,6.69-.28,2,2.22,3.38,3.43,1.44,1.47-2.35,2.56-4.9,3.26-7.58l-3.68-.5c0,.18,0,.36-.01,.54-.05,2.14,3.1,2.51,3.68,.5,.66-2.29,.63-4.69-.16-6.93-.56-1.59-3.24-1.96-3.62,0-.32,1.66-.45,3.3-.31,4.98h3.75c-.19-1.86-.41-6.19-2.87-6.48-1.28-.15-2.1,.71-2.56,1.8-.55,1.32-1.05,2.66-1.57,4h3.62c-.66-2.02-1.31-4.04-1.97-6.06-.52-1.61-3.28-1.95-3.62,0-.4,2.35-.39,4.67-.3,7.04,.08,2,3.31,2.68,3.68,.5s.71-4.19,1.06-6.29h-3.62c.48,2.68,.83,5.37,1.06,8.08,.2,2.43,3.49,2.39,3.75,0,.31-2.82,.4-5.64,.28-8.48-.09-2-3.31-2.68-3.68-.5-.88,5.1-1.36,10.26-1.39,15.44h3.75c0-2.25,0-4.49-.04-6.74-.03-1.98,.12-4.11-.49-6.02-.54-1.7-3.15-1.86-3.62,0-1.09,4.31-1.2,8.85-1.56,13.27l3.68-.5c-.29-1.03-.58-2.06-.88-3.1-.46-1.64-3.35-1.93-3.62,0-.46,3.4-.64,6.8-.42,10.23l3.68-.5c-.43-3.01-.86-6.02-1.29-9.04-.11-.8-1.06-1.38-1.81-1.38-.89,0-1.5,.6-1.81,1.38-.53,1.33-.75,2.75-.67,4.18,.14,2.46,3.46,2.36,3.75,0,.38-3.13,.85-6.24,1.39-9.34h-3.62c.37,2.47,.74,4.93,1.1,7.4,.34,2.27,.99,4.7,.84,7l3.68-.5c-.81-5.92-1.62-11.84-2.43-17.77-.13-.92-1.24-1.45-2.06-1.34-1,.13-1.51,.9-1.63,1.84-.72,5.68-1.44,11.36-2.15,17.04h3.75c.19-2.62,.11-5.23-.23-7.84-.27-2-3-2.66-3.68-.5-1.49,4.7-1.67,9.66-.61,14.47,.48,2.19,3.51,1.49,3.68-.5,.27-3.02,.55-6.04,.8-9.06,.22-2.71,.71-5.77-.16-8.4-.53-1.61-3.27-1.95-3.62,0-.42,2.41-.78,4.83-1.07,7.26-.25,2.09,3.27,2.56,3.68,.5,.6-3.02,1.14-6.18,.01-9.14-.6-1.58-3.18-1.97-3.62,0-1.16,5.27-1.97,10.61-2.43,15.99-.18,2.12,3.18,2.52,3.68,.5,.59-2.4,1.19-4.8,1.78-7.2l-3.68-.5c-.06,2.44,.03,4.87,.27,7.3s3.9,2.44,3.75,0c-.22-3.62-.16-7.24,.18-10.85,.09-1.01-.93-1.88-1.88-1.88-1.11,0-1.75,.86-1.88,1.88-.32,2.71-.65,5.42-.97,8.13h3.75c.17-3.92,.31-7.84-.11-11.75-.1-.93-.64-1.72-1.63-1.84-.82-.1-1.93,.41-2.06,1.34l-.71,5.29,3.68,.5c.1-5,.21-10.01,.31-15.01h-3.75c.01,2.25,.25,4.49,.68,6.7s3.49,1.45,3.68-.5c.31-3.12,.62-6.24,.93-9.35,.1-1.01-.93-1.88-1.88-1.88-1.12,0-1.74,.87-1.88,1.88-.57,4.36-.92,8.74-1.05,13.13h3.75l-.36-7.75h-3.75c.24,2.42,.58,4.83,1.05,7.22,.43,2.17,3.56,1.51,3.68-.5,.2-3.21,.43-6.39,1.44-9.46l-3.43,.45c.7,.98,.86,2.27,1.14,3.42,.33,1.34,.66,2.67,.99,4.01,.43,1.74,3.25,1.84,3.62,0,.82-4.09,1.12-8.24,.8-12.39l-3.68,.5c.19,.56,.36,1.13,.43,1.72l3.68-.5c-.18-1.19-.35-2.37-.53-3.56-.14-.92-1.23-1.45-2.06-1.34-1,.13-1.51,.9-1.63,1.84-.14,1.1-.28,2.2-.42,3.3l3.68-.5c-.04-.19-.09-.38-.13-.57-.47-2.03-3.83-1.63-3.68,.5,.12,1.71,.41,3.38,.93,5.01,.73,2.29,4.2,1.36,3.62-1-.31-1.24-.61-2.47-.92-3.71-.25-1.01-.42-2.11-1.01-2.99-1.34-1.98-4.05-1.54-4.9,.58l3.62,1c.15-.58,.35-1.05,.65-1.57h-3.24c.35,.54,.57,1.02,.72,1.64,.58,2.35,4.13,1.35,3.62-1-.07-.34-.21-.64-.37-.94-.73-1.35-3.13-1.15-3.43,.45s-.76,3.13-1.38,4.64h3.62c-.35-1.03-.69-2.06-1.04-3.09s-1.26-1.52-2.31-1.31c-1.15,.23-1.79,1.01-2.2,2.06l3.68,.5c.11-.98,.37-1.93,.69-2.87,.78-2.29-2.84-3.27-3.62-1h0Z"/><path class="cls-3" d="M183.22,174.33v-36.44c0-1.67-.14-3.41,0-5.08,.1-1.16,.96-1.2,1.89-1.2h5.43c.87,0,2.8-.37,3.35,.57,.28,.48,.16,1.28,.16,1.81v28.68c0,2.41,3.75,2.42,3.75,0v-28.16c0-.58,.02-1.17,0-1.75-.12-2.8-2.22-4.8-5-4.89-1.63-.05-3.27,0-4.9,0-1.46,0-3.08-.19-4.52,.11-2.36,.49-3.82,2.53-3.9,4.87-.02,.61,0,1.22,0,1.83v21.36c0,5.99-.15,11.99,0,17.98,0,.11,0,.22,0,.33,0,2.41,3.75,2.42,3.75,0h0Z"/><path class="cls-3" d="M182.41,174.75c0-.28,0-.57,0-.85,0-.26-.04-.5-.16-.72-.08-.23-.2-.43-.39-.6-.17-.18-.37-.31-.6-.39-.22-.12-.46-.17-.72-.16l-.5,.07c-.32,.09-.59,.25-.83,.48l-.29,.38c-.17,.29-.25,.61-.26,.95,0,.28,0,.57,0,.85,0,.26,.04,.5,.16,.72,.08,.23,.2,.43,.39,.6,.17,.18,.37,.31,.6,.39,.22,.12,.46,.17,.72,.16l.5-.07c.32-.09,.59-.25,.83-.48l.29-.38c.17-.29,.25-.61,.26-.95h0Z"/><path class="cls-3" d="M57.3,128.49c-.51-2.05-1-4.51,1.01-5.92,1.61-1.13,4.2-1.35,5.75-.03,.24,.21,.65,.27,.88,0,.57-.64,.85-1.39,1.31-2.1,.62-.97,1.6-1.53,2.68-1.87,2.12-.67,4.51-.67,6.66-.15,1.05,.25,2.28,.59,3.07,1.36s1.3,2.13,1.7,3.17c.79,2.05,1.07,4.52-.78,6.09-.61,.52,.27,1.4,.88,.88,1.82-1.55,2.07-4.04,1.46-6.23-.68-2.46-1.82-4.99-4.31-5.96s-5.59-1.21-8.3-.57c-1.11,.26-2.21,.7-3.09,1.44-1.02,.84-1.3,2.09-2.15,3.05h.88c-2-1.71-5.12-1.61-7.26-.17-2.57,1.73-2.25,4.69-1.59,7.33,.2,.78,1.4,.45,1.21-.33h0Z"/><path class="cls-3" d="M70.85,129.21l.13-.11-1.01,.78c.92-.7,1.9-1.33,2.65-2.22s1.36-1.79,2.04-2.69l-.78,1.01c.25-.32,.51-.64,.82-.9l-1.01,.78c.13-.09,.24-.16,.38-.22l-1.19,.5c.09-.03,.19-.05,.29-.06l-1.33,.18c.32-.02,.64,.02,.96,.07l-1.33-.18c.92,.13,1.87,.3,2.74,.64l-1.19-.5c.14,.07,.26,.13,.38,.22l-1.01-.78c.07,.06,.13,.12,.19,.2l-.78-1.01c.05,.06,.09,.13,.12,.21l-.5-1.19c.08,.19,.13,.39,.16,.59l-.18-1.33c.1,.76,.13,1.54,.3,2.28,.26,1.16,.89,2.01,1.6,2.93s2.41,1.46,3.54,1.46c1.23,0,2.69-.54,3.54-1.46s1.52-2.2,1.46-3.54l-.18-1.33c-.24-.85-.67-1.58-1.29-2.21l-.08-.1,.78,1.01c-.05-.07-.09-.14-.12-.21l.5,1.19c-.08-.2-.12-.39-.15-.6l.18,1.33c-.1-.78-.13-1.58-.31-2.34-.32-1.34-1.14-2.51-2.22-3.34-1.29-.99-2.87-1.45-4.46-1.71-.86-.14-1.77-.34-2.65-.3-1.66,.09-3.11,.71-4.32,1.84-.99,.92-1.69,2.13-2.51,3.19l.78-1.01c-.36,.45-.74,.87-1.19,1.23l1.01-.78c-.62,.46-1.24,.92-1.84,1.4-.93,.75-1.46,2.39-1.46,3.54,0,1.23,.54,2.69,1.46,3.54s2.2,1.52,3.54,1.46l1.33-.18c.85-.24,1.58-.67,2.21-1.29h0Z"/><path class="cls-3" d="M60.22,130.81c2.62,0,5.12-2.3,5-5s-2.2-5-5-5c-2.62,0-5.12,2.3-5,5s2.2,5,5,5h0Z"/><path class="cls-3" d="M240.74,217.31c-.13-.95-.03-2.52,1.27-2.53,.57,0,.79-.67,.44-1.07-.47-.53-.92-1.11-.51-1.82,.38-.67,1.18-.85,1.89-.87,.32,0,.65-.28,.62-.62-.1-1.33,.48-3.08,2.08-3.09,.65,0,1.11,.25,1.57-.37,.32-.44,.8-1.4,1.49-.99s1.32-.67,.63-1.08c-.79-.47-1.73-.25-2.38,.36-.17,.16-.31,.34-.45,.53-.07,.1-.14,.2-.2,.3-.14,.17-.13,.2,.04,.09-.2,.03-.48-.09-.69-.09-.2,0-.41,.03-.6,.07-1.96,.4-2.86,2.44-2.73,4.27l.62-.62c-1.22,.02-2.48,.48-3.05,1.64s-.03,2.26,.79,3.18l.44-1.07c-2.01,0-2.74,2.08-2.52,3.78,.1,.79,1.35,.8,1.25,0h0Z"/><path class="cls-3" d="M242.75,214.21c-.24,.32-.52,.62-.81,.91l1.04,.61c.07-.33,.23-.59,.02-.92-.18-.29-.55-.39-.87-.3-.71,.19-1.37,.75-1.82,1.31-.43,.52,.11,1.36,.76,.98,.31-.18,.53-.4,.75-.69l-1.14-.48c-.09,.22-.18,.44-.28,.67-.23,.54,.49,.93,.92,.71,.81-.42,1.55-.96,2.2-1.6l-.88-.88-.61,.6,1.04,.61c.17-.7,.65-1.74,.28-2.43-.15-.28-.59-.42-.86-.22-.42,.3-.82,.61-1.22,.94l1.04,.28c-.22-.55,.37-1.42,.66-1.88,.37-.59-.53-1.31-.98-.76l-.52,.64,.98,.76c.28-.56,.66-.99,1.21-1.31l-.94-.54c-.05,.54-.36,1.11-.54,1.61-.2,.55-.4,1.09-.6,1.64-.24,.67,.81,1.1,1.14,.48,.41-.74,.85-1.46,1.33-2.16l-1.14-.48-.57,2.29c-.17,.67,.79,1.12,1.14,.48,.37-.67,.8-1.31,1.29-1.9l-1.04-.61c-.11,.65-.47,1.23-.78,1.81-.34,.63-.69,1.26-1.04,1.88s.46,1.22,.98,.76c1.14-1.01,2.3-2,3.67-2.69l-.86-.86c-.33,.5-.74,.92-1.22,1.29l.98,.76c.41-.57,.84-1.12,1.3-1.65,.42-.48,.87-1.13,1.46-1.39l-.86-.86c-.25,.48-.5,.97-.76,1.45-.32,.61,.47,1.28,.98,.76,.75-.77,1.54-1.49,2.36-2.18l-.88-.88c-.51,.51-1.07,.95-1.68,1.33l.76,.98c.27-.32,.56-.59,.96-.74l-.77-.77c-.06,.39-.83,.89-1.11,1.14-.42,.36-.86,.69-1.31,1.01l.86,.86c.25-.36,.49-.71,.74-1.07,.3-.43-.11-.9-.54-.94-.47-.05-1.44-.08-1.73-.49-.11-.16-.15-.36-.26-.52-.16-.24-.36-.36-.63-.47-.24-.1-.59,.06-.71,.29-.09,.16-.17,.33-.26,.49l1.16,.32c-.05-.56,.86-.9,1.24-1.2,.45-.36,.05-1.05-.44-1.07-.31,0-.6,.03-.9,.11l.79,.6c-.03-.29,.28-.58,.34-.88,.05-.24,.03-.53-.11-.74-.12-.19-.14-.17-.05,.08l.13-.12c.14-.07,.29-.24,.42-.33,.26-.19,.54-.35,.82-.5,1.09-.56,2.39-.68,2.87-1.99l-1.14,.15c.38,.77,.42,1.7,.54,2.54,.13,.92,.25,1.84,.37,2.77l1.23-.17c-.22-1.33-.56-2.63-1.02-3.89-.19-.51-1.1-.67-1.21,0-.11,.7-.22,1.41-.33,2.11l1.23,.17c.11-.83,.06-1.65-.11-2.47-.14-.68-1.31-.54-1.23,.17,.17,1.36,.33,2.71,.5,4.07,.1,.78,1.31,.82,1.25,0-.1-1.32-.35-2.61-.76-3.86-.17-.53-1.11-.66-1.21,0-.16,1.06-.38,2.11-.69,3.14l1.23,.17c.03-.78,.09-1.57,.17-2.35l-1.23,.17c.32,1.33,.38,2.69,.43,4.05,.03,.68,1.06,.88,1.23,.17,.21-.92,.28-1.84,.18-2.77-.07-.65-1.06-.91-1.23-.17l-.34,1.52,1.23,.17c-.02-1.17-.18-2.33-.49-3.46-.08-.3-.46-.57-.77-.44-.53,.22-1.04,.46-1.54,.74l.76,.98c.51-.43,1.02-.86,1.53-1.29,.54-.45-.17-1.39-.76-.98l-1.28,.88,.86,.86c.15-.2,.32-.37,.51-.53l-.88-.88-1.88,1.77c-.59,.56,.28,1.4,.88,.88,.4-.34,.84-.6,1.32-.81l-.76-.98c-.56,.56-1.1,1.13-1.57,1.76-.37,.49,.36,1.21,.86,.86,.72-.52,1.48-.98,2.28-1.39l-.92-.71c-.05,.34-.36,.6-.58,.85-.27,.3-.54,.59-.81,.88-.47,.5-1.03,.96-1.33,1.58-.25,.5,.16,1.03,.71,.92,.6-.12,1.09-.57,1.54-.95,.53-.45,1.02-.95,1.46-1.48,.51-.61-.28-1.43-.88-.88-.96,.87-1.86,1.8-2.71,2.78-.43,.5,.14,1.42,.76,.98,.82-.57,1.64-1.15,2.45-1.72l-.86-.86c-.38,.62-1.13,1.01-1.73,1.4-.69,.44-1.39,.86-2.09,1.28l.76,.98c.25-.27,.51-.45,.84-.59l-.94-.54h.03c-.49,.61,.29,1.45,.88,.87,.55-.54,1.01-1.16,1.34-1.86s-.73-1.36-1.08-.63c-.29,.61-.66,1.13-1.15,1.61l.88,.88c.22-.28,.33-.51,.34-.87,.01-.52-.53-.72-.94-.54s-.78,.45-1.1,.79c-.47,.51,.13,1.36,.76,.98,.81-.48,1.63-.97,2.42-1.49,.69-.46,1.41-.91,1.85-1.63,.31-.51-.33-1.22-.86-.86-.82,.57-1.64,1.15-2.45,1.72l.76,.98c.84-.98,1.75-1.91,2.71-2.78l-.88-.88c-.37,.44-.76,.85-1.18,1.23-.36,.32-.79,.78-1.27,.88l.71,.92c.33-.68,1.04-1.21,1.55-1.77,.47-.51,1.2-1.11,1.31-1.84,.08-.54-.4-.97-.92-.71-.8,.4-1.56,.86-2.28,1.39l.86,.86c.41-.55,.89-1.03,1.37-1.51,.54-.54-.14-1.25-.76-.98-.58,.25-1.09,.59-1.57,1.01l.88,.88,1.88-1.77c.59-.56-.28-1.39-.88-.88-.28,.23-.5,.49-.71,.78-.36,.5,.35,1.2,.86,.86l1.28-.88-.76-.98c-.51,.43-1.02,.86-1.53,1.29-.55,.47,.16,1.33,.76,.98,.4-.23,.81-.44,1.24-.62l-.77-.44c.28,1.03,.43,2.06,.44,3.13,.01,.68,1.07,.87,1.23,.17l.34-1.52-1.23-.17c.08,.83,.05,1.63-.14,2.44l1.23,.17c-.06-1.47-.13-2.95-.48-4.39-.17-.73-1.16-.49-1.23,.17-.08,.78-.13,1.56-.17,2.35-.03,.72,1.03,.83,1.23,.17,.3-1.03,.53-2.08,.69-3.14h-1.21c.38,1.15,.63,2.32,.72,3.53h1.25c-.17-1.36-.33-2.71-.5-4.07l-1.23,.17c.15,.71,.16,1.42,.06,2.14s1.12,.86,1.23,.17,.22-1.41,.33-2.11h-1.21c.46,1.27,.8,2.57,1.02,3.89,.11,.69,1.31,.53,1.23-.17-.12-1.03-.26-2.07-.41-3.1-.14-.97-.23-1.94-.67-2.84-.26-.53-.97-.31-1.14,.15-.22,.59-1.08,.72-1.59,.92-.62,.25-1.2,.57-1.74,.97-.45,.34-1.05,.75-.98,1.39,.02,.18,.06,.29,.16,.43l.1,.13c-.04-.16-.08-.16-.13,0-.23,.19-.31,.7-.28,.96,.04,.4,.37,.72,.79,.6,.2-.06,.36-.07,.57-.07l-.44-1.07c-.73,.58-1.7,.98-1.6,2.09,.05,.57,.86,.91,1.16,.32,.09-.16,.17-.33,.26-.49l-.71,.29c-.14-.06,.01,.13,.04,.19,.05,.11,.09,.22,.15,.32,.15,.25,.36,.42,.62,.55,.65,.3,1.42,.39,2.13,.46l-.54-.94c-.25,.36-.49,.71-.74,1.07-.35,.51,.35,1.21,.86,.86,.59-.41,1.17-.85,1.71-1.33,.46-.41,1.19-.91,1.29-1.56,.06-.41-.27-.97-.77-.77-.59,.24-1.1,.57-1.51,1.07s.11,1.39,.76,.98c.7-.44,1.34-.95,1.93-1.53s-.28-1.39-.88-.88c-.82,.69-1.61,1.42-2.36,2.18l.98,.76c.25-.48,.5-.97,.76-1.45,.3-.58-.29-1.11-.86-.86-.7,.32-1.22,1.02-1.71,1.59-.53,.61-1.02,1.25-1.49,1.9s.47,1.15,.98,.76c.56-.44,1.02-.95,1.41-1.55,.37-.56-.33-1.12-.86-.86-1.46,.74-2.7,1.81-3.92,2.89l.98,.76c.38-.68,.77-1.37,1.13-2.06,.32-.61,.7-1.24,.81-1.93,.09-.55-.6-1.14-1.04-.61-.56,.67-1.06,1.38-1.49,2.15l1.14,.48,.57-2.29c.18-.71-.75-1.05-1.14-.48-.48,.7-.93,1.41-1.33,2.16l1.14,.48c.22-.61,.45-1.22,.67-1.83,.21-.58,.45-1.13,.51-1.75,.05-.48-.56-.76-.94-.54-.72,.42-1.28,1.01-1.65,1.76-.29,.59,.5,1.34,.98,.76l.52-.64-.98-.76c-.48,.76-1.15,1.93-.78,2.84,.18,.45,.66,.6,1.04,.28,.31-.26,.63-.51,.97-.74l-.86-.22c-.08-.15-.01-.1-.07,.07-.05,.16-.08,.33-.12,.5l-.21,.89c-.14,.6,.59,1.06,1.04,.61l.61-.6c.57-.57-.31-1.45-.88-.88s-1.23,1.03-1.95,1.4l.92,.71c.09-.22,.18-.44,.28-.67,.29-.71-.76-1-1.14-.48-.08,.11-.18,.18-.3,.25l.76,.98c.18-.22,.38-.44,.61-.61,.09-.07,.19-.13,.29-.19,.07-.04,.15-.08,.23-.12,.11-.04,.1-.05-.02-.04l-.44-.44c.02-.18,.01-.21-.03-.09-.03,.06-.05,.13-.06,.2-.12,.59,.58,1.07,1.04,.61,.37-.36,.69-.75,1-1.16,.48-.64-.6-1.27-1.08-.63h0Z"/></g><path class="cls-2" d="M32.98,158.58c6.17,1.2,12.65,2.16,18.04,5.6,2.72,1.74,5.14,4.11,6.74,6.93,1.55,2.74,2.3,5.9,2.68,9,.72,5.91,.37,11.92,1.92,17.71s3.84,11,6.47,16.15c2.86,5.61,6.2,11.01,10.25,15.84,1.98,2.37,4.28,4.41,6.39,6.65,2.59,2.74,5.03,5.6,7.58,8.37,7.35,7.99,15.6,15.19,24.38,21.57,11.13,8.09,23.43,14.81,36.63,18.81,1.71,.52,3.44,.99,5.18,1.41,3.13,.76,4.46-4.06,1.33-4.82-13.44-3.26-25.91-9.55-37.27-17.35-9.05-6.21-17.45-13.42-25.03-21.37-2.25-2.36-4.39-4.82-6.57-7.24-2.3-2.55-4.78-4.9-7.14-7.39-4.12-4.34-7.37-9.49-10.21-14.74s-5.13-10.35-6.77-15.87c-.33-1.11-.63-2.24-.87-3.37-.11-.5-.19-1-.28-1.51-.02-.11-.03-.22-.05-.33,0,.03,.05,.42,.02,.13-.03-.31-.06-.62-.09-.92-.3-3.51-.37-7.04-.72-10.55-.71-7.22-2.89-13.83-8.48-18.75-5.07-4.47-11.39-6.49-17.9-7.82-1.62-.33-3.25-.64-4.88-.96-1.32-.26-2.7,.37-3.08,1.75-.34,1.23,.41,2.82,1.75,3.08h0Z"/><path class="cls-2" d="M61.41,178.12c1.97,7.59,4.71,14.97,8.12,22.03,.59,1.22,2.32,1.54,3.42,.9,1.24-.73,1.49-2.2,.9-3.42-3.23-6.68-5.76-13.66-7.62-20.84-.81-3.11-5.63-1.79-4.82,1.33h0Z"/><path class="cls-2" d="M66.34,202.93c.76,8.27,5.3,15.15,10.55,21.33,5.69,6.69,11.8,13.12,17.96,19.39,3.63,3.69,7.36,7.28,11.26,10.7,1.01,.89,2.54,1,3.54,0,.91-.91,1.02-2.64,0-3.54-6.55-5.75-12.64-12-18.57-18.38-5.4-5.8-11.31-11.53-15.55-18.28-2.14-3.41-3.81-7.18-4.19-11.23-.12-1.34-1.06-2.5-2.5-2.5-1.26,0-2.62,1.15-2.5,2.5h0Z"/><circle class="cls-1" cx="76.83" cy="174.63" r="7.28"/><line class="cls-5" x1="71.69" y1="169.47" x2="81.98" y2="179.76"/></g></g></g></svg>