<?xml version="1.0" encoding="UTF-8"?><svg id="Layer_2" xmlns="http://www.w3.org/2000/svg" viewBox="0 0 1758.46 515.27"><defs><style>.cls-1{fill:#ed0b04;}.cls-2{fill:#fb8c10;}.cls-3{fill:#0472ed;}</style></defs><g id="Layer_1-2"><g><g><path d="m683.74,230.32V96.02h28.87v134.31h-28.87Z"/><path d="m818.69,230.32l-52.21-86.62v86.62h-28.96V96.02h28.96l52.21,86.62v-86.62h28.87v134.31h-28.87Z"/><path d="m973.11,119.45h-40.96v110.88h-28.87v-110.88h-40.31v-23.43h110.14s0,23.43,0,23.43Z"/><path d="m1079,206.99v23.34h-90.68V96.02h90.58v23.43h-61.62v30.53h52.49v22.6h-52.49v34.41h61.72Z"/><path d="m1200.12,228.94v1.38h-30.99l-24.72-48.52h-20.94v48.52h-28.96V96.02h50.73c10.39,0,19.33,1.55,26.8,4.66,7.47,3.11,13.21,7.69,17.2,13.74,4,6.06,6,13.45,6,22.18,0,9.53-2.06,17.33-6.18,23.38-4.12,6.06-10.02,10.84-17.71,14.34l28.78,54.61h-.01Zm-76.65-70.56h21.77c6.89,0,12.11-1.72,15.68-5.17,3.57-3.44,5.35-8.18,5.35-14.21s-1.77-10.95-5.3-14.39c-3.54-3.44-8.78-5.17-15.73-5.17h-21.77v38.93h0Z"/><path d="m1296.97,230.32l-52.21-86.62v86.62h-28.96V96.02h28.96l52.21,86.62v-86.62h28.87v134.31h-28.87Z"/><path d="m1369.62,164.51c-6.55-3.6-11.79-8.1-15.73-13.51-3.94-5.41-5.9-11.84-5.9-19.28s2.14-14.01,6.41-19.69c4.27-5.69,10.19-10.08,17.76-13.19,7.56-3.1,16.2-4.66,25.92-4.66s18.42,1.74,25.92,5.21c7.5,3.48,13.31,8.36,17.43,14.67,4.12,6.3,6.18,13.51,6.18,21.63h-28.87c0-5.66-1.8-10.16-5.4-13.51s-8.87-5.03-15.82-5.03c-4.43,0-8.2.65-11.3,1.94-3.11,1.29-5.44,3.06-7.01,5.3-1.57,2.25-2.35,4.75-2.35,7.52,0,4.12,2.12,7.61,6.37,10.47,4.24,2.86,10.82,5.67,19.74,8.44,15.07,4.61,26.27,10.38,33.62,17.29,7.35,6.92,11.02,15.79,11.02,26.61,0,7.81-2,14.53-6,20.16s-9.67,9.92-17.02,12.87-15.97,4.43-25.88,4.43-18.37-1.63-26.7-4.89-15.11-8.26-20.34-14.99c-5.23-6.73-7.84-14.99-7.84-24.77h29.06c0,7.69,2.23,13.24,6.69,16.65,4.46,3.41,10.84,5.12,19.14,5.12,6.58,0,11.54-1.32,14.9-3.97,3.35-2.64,5.03-6.12,5.03-10.42,0-3.2-.68-5.87-2.03-8.03-1.35-2.15-3.84-4.21-7.47-6.18-3.63-1.97-8.98-4.09-16.05-6.37-9.1-2.95-16.93-6.23-23.48-9.82h0Z"/><path d="m1575.92,96.02v134.31h-28.87v-57.01h-52.3v57.01h-28.96V96.02h28.96v53.96h52.3v-53.96h28.87Z"/><path d="m1601.01,230.32V96.02h28.87v134.31h-28.87Z"/><path d="m1734.67,101.78c7.69,3.84,13.57,9.15,17.66,15.91,4.09,6.77,6.13,14.48,6.13,23.15s-2.03,16.14-6.09,22.6c-4.06,6.46-9.93,11.44-17.62,14.94-7.69,3.51-16.76,5.26-27.21,5.26h-23.8v46.68h-28.96V96.02h52.76c10.39,0,19.43,1.92,27.12,5.76h0Zm-10.79,53.27c3.57-3.44,5.35-8.12,5.35-14.02,0-3.93-.77-7.53-2.31-10.79s-3.94-5.87-7.2-7.84-7.32-2.95-12.18-2.95h-23.8v40.77h23.8c7.32,0,12.76-1.72,16.33-5.17h.01Z"/><path d="m761.78,290.7c7.69,3.84,13.57,9.15,17.66,15.91,4.09,6.77,6.13,14.48,6.13,23.15s-2.03,16.14-6.09,22.6c-4.06,6.46-9.93,11.44-17.62,14.94-7.69,3.51-16.76,5.26-27.21,5.26h-23.8v46.68h-28.96v-134.31h52.76c10.39,0,19.43,1.92,27.12,5.76h.01Zm-10.79,53.28c3.57-3.44,5.35-8.12,5.35-14.02,0-3.93-.77-7.53-2.31-10.79s-3.94-5.87-7.19-7.84c-3.26-1.97-7.32-2.95-12.18-2.95h-23.8v40.77h23.8c7.32,0,12.76-1.72,16.33-5.17h0Z"/><path d="m908.12,390.09c-4.83,9.96-11.58,17.62-20.25,22.97s-18.66,8.03-29.98,8.03-21.34-2.67-30.07-8.03c-8.73-5.35-15.53-13.01-20.39-22.97s-7.29-21.65-7.29-35.05v-5.81c0-13.41,2.43-25.11,7.29-35.1s11.62-17.67,20.29-23.02,18.66-8.02,29.98-8.02,21.32,2.67,30.03,8.02c8.7,5.35,15.48,13.02,20.34,23.02,4.86,9.99,7.29,21.69,7.29,35.1v5.81c0,13.41-2.41,25.09-7.24,35.05Zm-29.47-72.37c-4.92-7.22-11.9-10.84-20.94-10.84s-16.08,3.6-20.94,10.79c-4.86,7.2-7.29,17.65-7.29,31.36v6c0,13.59,2.46,24.05,7.38,31.36,4.92,7.32,11.93,10.98,21.03,10.98s15.99-3.66,20.85-10.98,7.29-17.77,7.29-31.36v-6c0-13.65-2.46-24.09-7.38-31.32h0Z"/><path d="m1040.17,417.86v1.38h-30.99l-24.72-48.52h-20.94v48.52h-28.97v-134.31h50.73c10.39,0,19.32,1.55,26.8,4.66,7.47,3.11,13.21,7.69,17.2,13.74,4,6.06,6,13.45,6,22.18,0,9.53-2.06,17.33-6.18,23.38-4.12,6.06-10.02,10.84-17.71,14.34l28.78,54.61v.02Zm-76.65-70.57h21.77c6.89,0,12.11-1.72,15.68-5.17,3.57-3.44,5.35-8.18,5.35-14.21s-1.77-10.95-5.3-14.39c-3.54-3.44-8.78-5.17-15.73-5.17h-21.77v38.93h0Z"/><path d="m1155.47,308.36h-40.96v110.88h-28.87v-110.88h-40.31v-23.43h110.14v23.43Z"/><path d="m1234.99,392.58h-47.6l-8.76,26.66h-30.81l49.81-134.31h26.94l50.09,134.31h-30.9l-8.76-26.66h0Zm-7.75-23.43l-16.14-48.98-16.05,48.98h32.19Z"/><path d="m1373.54,395.9v23.34h-87.08v-134.31h28.96v110.97h58.12Z"/></g><g><path class="cls-1" d="m10.19,50.08c14.78-14.74,26.14-14.38,46.98-1.83,17.88,10.77,17.3,40.36,8.74,59.39-9.03,20.08-39.11,14.85-53.85.07-14.75-14.77-16.64-42.9-1.86-57.64Z"/><path class="cls-1" d="m14.1,142.46c9.27-21.35,50.38-11.84,63.88-2.39,42.94,30.07,131.33,366.71,109.71,374.72-21.76,8.05-207.23-294.94-173.57-372.34h-.01Z"/><path class="cls-3" d="m468.48,110.97c-45.81,4.26-84.87,75.83-95.62,112.05-22.93,57.61-58.74,251.59-53.83,288.62.6,4.55,6.28,3.77,8.05,3.15,11.53-4.07,68.53-142.49,100.66-231.94,74.09,13.29,189.86-30.27,194.34-72.06,3-28-87-106-153.6-99.81h0Zm105.32,91.85c0,28.44-106.76,56.73-128.76,42.73,6-13,24.24-71.72,65-79,27.72-4.95,63.76,21.27,63.76,36.27Z"/><path class="cls-2" d="m356.8,152.83c-9.64,1.93-28.49,3.71-54.55,6.48,10.13,82.52-7.71,288.12-25.24,347.46-3.19,10.8-15.26,7-17.66,7-15,0-51.08-238.44-44.47-343.56-25.71,3.79-53.95,8.54-84.08,14.62-9.48,1.91-33.32-60.18-21.5-62.33,169.14-30.74,225.41-35.98,304.5-18.67,32,7-28.03,43.2-57,49Z"/><path class="cls-2" d="m234.87,3.52c20.59-7.93,31.41-2.73,46.18,18.32,12.67,18.05-.53,46.4-16.95,61.14-17.32,15.55-44.15-2.37-52.08-22.95-7.94-20.58,2.25-48.57,22.84-56.5Z"/><path class="cls-3" d="m508.22,15.76c22.05.65,30.02,9.63,35.5,34.75,4.71,21.55-18.44,42.59-39.27,49.83-21.98,7.64-39.8-19.26-39.15-41.31.64-22.05,20.86-43.92,42.91-43.27Z"/></g></g></g></svg>