<?xml version="1.0" encoding="UTF-8"?><svg id="Layer_2" xmlns="http://www.w3.org/2000/svg" viewBox="0 0 54.39 32.86"><g id="Layer_1-2"><g id="Layer_2-2"><g id="Layer_1-2"><path d="m26.18,20.76v2.23h.02v-2.25l-.02.02Z" style="fill:#3aaf9d;"/><path d="m54.39,27.86c-.44,1.05-1.15,1.95-2.12,2.69-.98.75-2.09,1.33-3.27,1.71-1.16.38-2.38.58-3.6.59h0s-5.77,0-5.77,0l-6.14-8.75-2.27,2.33v6.41h-5.03v-12.11l-.02.02c-1.74,1.6-3.75,2.39-6.01,2.39-1.44,0-2.87-.28-4.2-.85-1.3-.56-2.47-1.36-3.46-2.37-.02.04-.04.07-.06.11-.59,1.04-1.48,1.83-2.67,2.38s-2.77.82-4.76.82c-1.01,0-1.93-.12-2.75-.36-.81-.23-1.57-.59-2.27-1.07l1.13-4.34c.24.13.7.33,1.39.62s1.51.42,2.46.42c.78,0,1.41-.13,1.89-.38.49-.26.85-.65,1.1-1.19.25-.53.42-1.22.5-2.07s.13-1.85.13-3.03V.08h5.31v2.05c.69-.5,1.43-.91,2.21-1.24,1.38-.59,2.88-.88,4.49-.88,2.1,0,3.96.45,5.56,1.35,1.61.9,2.81,2.11,3.6,3.63l-3.95,2.96c-.49-1-1.27-1.84-2.24-2.4-.96-.56-2.05-.86-3.17-.85-.82,0-1.63.17-2.36.53-.72.35-1.35.86-1.85,1.48-.53.66-.94,1.4-1.21,2.2-.29.87-.44,1.78-.43,2.7,0,.99.15,1.9.45,2.73.28.8.7,1.53,1.26,2.17,1.09,1.25,2.68,1.97,4.34,1.95,1.09,0,2.14-.27,3.15-.82.87-.47,1.67-1.13,2.41-1.97v-.81h-4.38v-3.79h8.78s.64,0,.64,0v9.39l7.98-9.39h5.65,0c.22,0,.45,0,.67,0,2.02,0,3.77.43,5.25,1.3,1.48.87,2.6,2,3.35,3.39l-3.84,2.69c-.3-.77-.72-1.37-1.26-1.8-.51-.42-1.11-.73-1.76-.91-.61-.17-1.23-.25-1.86-.26-.93,0-1.75.19-2.45.56-.69.36-1.29.87-1.76,1.5-.47.63-.82,1.34-1.04,2.09-.23.73-.34,1.5-.35,2.27,0,.84.13,1.68.41,2.48.26.76.65,1.47,1.15,2.09.49.6,1.1,1.09,1.79,1.44.7.35,1.48.53,2.35.53.63,0,1.25-.1,1.85-.29.64-.2,1.23-.52,1.74-.95.53-.44.94-1.03,1.23-1.76l4.09,2.42Z" style="fill:#3aaf9d;"/></g></g></g></svg>