<?xml version="1.0" encoding="UTF-8"?><svg id="Layer_2" xmlns="http://www.w3.org/2000/svg" viewBox="0 0 134.49 93.76"><defs><style>.cls-1{fill:#38af9d;}.cls-2{fill:#436964;}</style></defs><g id="Layer_1-2"><path class="cls-1" d="m113.41,47.24c-.75,1.78-1.95,3.3-3.59,4.57-1.67,1.28-3.55,2.26-5.55,2.9-1.97.65-4.03.99-6.11,1h0s-9.8.01-9.8.01l-10.42-14.83-3.86,3.96v10.88h-8.55v-20.54l-.03.03c-2.96,2.71-6.36,4.06-10.21,4.06-2.45.01-4.87-.48-7.12-1.45-2.2-.94-4.2-2.31-5.88-4.02-.03.06-.07.12-.1.18-1.01,1.76-2.52,3.1-4.53,4.03-2.02.93-4.71,1.39-8.08,1.39-1.72,0-3.28-.2-4.67-.6-1.37-.39-2.67-1-3.85-1.81l1.92-7.36c.4.22,1.19.57,2.36,1.04,1.17.48,2.56.71,4.18.71,1.32,0,2.39-.22,3.22-.65.82-.43,1.45-1.1,1.87-2.01.42-.91.71-2.07.86-3.5.15-1.43.22-3.14.22-5.13V.14h9.01v3.47c1.17-.84,2.42-1.55,3.75-2.11,2.35-1,4.89-1.5,7.61-1.5,3.57,0,6.71.76,9.44,2.29,2.73,1.53,4.77,3.58,6.11,6.16l-6.71,5.02c-.83-1.7-2.15-3.12-3.79-4.06-1.63-.96-3.49-1.46-5.38-1.45-1.39-.02-2.76.29-4.01.9-1.22.6-2.29,1.45-3.14,2.51-.9,1.12-1.59,2.38-2.05,3.74-.5,1.48-.75,3.02-.74,4.58,0,1.67.25,3.22.76,4.64.47,1.35,1.2,2.6,2.13,3.68.92,1.05,2.05,1.89,3.32,2.46,1.27.57,2.65.86,4.05.84,1.86,0,3.64-.46,5.35-1.39,1.47-.8,2.84-1.91,4.09-3.34v-1.37h-7.43v-6.43h14.9s1.09,0,1.09,0v15.93l13.55-15.93h9.59l-.02.02c.38-.02.76-.03,1.14-.03,3.42,0,6.39.74,8.91,2.21,2.52,1.47,4.41,3.39,5.68,5.75l-6.53,4.57c-.51-1.3-1.22-2.32-2.13-3.05-.87-.72-1.89-1.24-2.98-1.54-1.03-.28-2.09-.43-3.16-.44-1.58,0-2.96.32-4.16.95-1.17.61-2.19,1.48-2.98,2.54-.79,1.07-1.39,2.27-1.77,3.54-.39,1.25-.58,2.54-.59,3.85,0,1.43.23,2.86.69,4.21.44,1.29,1.1,2.49,1.95,3.54.83,1.02,1.86,1.85,3.03,2.44,1.18.6,2.51.9,3.98.9,1.06,0,2.12-.17,3.13-.49,1.08-.34,2.09-.89,2.95-1.62.91-.75,1.6-1.74,2.08-2.98l6.94,4.11Z"/><path class="cls-1" d="m4.49,81.02c-.95,0-1.81-.16-2.58-.48-.76-.33-1.4-.81-1.9-1.42l1.99-2.36c.34.44.7.78,1.07,1.02.37.22.76.33,1.16.33,1.08,0,1.62-.63,1.62-1.88v-5.56H1.38v-2.82h8.09v8.16c0,1.69-.42,2.95-1.27,3.78-.85.82-2.09,1.24-3.71,1.24Zm11.37-8.18h6v2.73h-6v-2.73Zm.26,5.1h6.76v2.82h-10.38v-12.92h10.14v2.82h-6.52v7.27Zm9.34,2.82v-12.92h5.91c1.18,0,2.2.19,3.05.57.86.38,1.53.94,1.99,1.66.47.71.7,1.56.7,2.55s-.23,1.82-.7,2.53c-.47.7-1.13,1.24-1.99,1.62-.85.37-1.86.55-3.05.55h-3.88l1.62-1.53v4.97h-3.66Zm7.99,0l-3.21-4.71h3.9l3.23,4.71h-3.91Zm-4.34-4.58l-1.62-1.68h3.66c.76,0,1.33-.17,1.7-.5.38-.33.57-.79.57-1.38s-.19-1.07-.57-1.4c-.37-.33-.94-.5-1.7-.5h-3.66l1.62-1.68v7.14Zm13.76,4.58l-4.19-12.92h3.77l3.53,11.19h-1.9l3.71-11.19h3.36l3.51,11.19h-1.83l3.64-11.19h3.49l-4.19,12.92h-3.91l-2.99-9.51h1.05l-3.12,9.51h-3.91Zm18.94,0v-12.92h3.66v12.92h-3.66Zm6.81,0v-12.92h3.01l7.13,8.6h-1.42v-8.6h3.58v12.92h-3.01l-7.13-8.6h1.42v8.6h-3.58Zm27.82.26c-1.02,0-1.97-.16-2.84-.48-.87-.33-1.63-.8-2.27-1.4-.63-.6-1.12-1.31-1.48-2.12-.36-.82-.54-1.73-.54-2.71s.18-1.88.54-2.7c.36-.82.86-1.54,1.5-2.14.64-.6,1.4-1.06,2.27-1.38.89-.33,1.85-.5,2.9-.5,1.22,0,2.31.2,3.27.61.96.41,1.75.99,2.38,1.75l-2.33,2.1c-.44-.48-.92-.84-1.44-1.07-.5-.25-1.07-.37-1.7-.37-.55,0-1.06.09-1.51.26-.46.17-.84.42-1.16.76-.32.32-.57.71-.76,1.16-.17.44-.26.95-.26,1.51s.09,1.04.26,1.5c.18.46.44.85.76,1.18.32.32.7.57,1.14.76.46.17.95.26,1.5.26s1.07-.09,1.59-.26c.52-.18,1.04-.49,1.57-.92l2.05,2.57c-.74.53-1.59.94-2.57,1.22-.97.28-1.93.42-2.86.42Zm2.2-2.12v-4.87h3.23v5.35l-3.23-.48Zm12.62,2.12c-1.03,0-1.99-.17-2.86-.5-.87-.33-1.64-.8-2.29-1.4-.64-.62-1.14-1.33-1.5-2.14-.36-.81-.54-1.7-.54-2.68s.18-1.86.54-2.68c.36-.81.86-1.52,1.5-2.12.65-.62,1.42-1.09,2.29-1.42.87-.33,1.83-.5,2.86-.5s2,.17,2.86.5c.87.33,1.63.81,2.27,1.42.64.6,1.14,1.31,1.5,2.12.37.81.55,1.7.55,2.68s-.18,1.87-.55,2.7c-.36.81-.85,1.52-1.5,2.12-.64.6-1.4,1.07-2.27,1.4-.86.33-1.81.5-2.86.5Zm0-3.03c.49,0,.95-.09,1.37-.26.43-.17.8-.42,1.11-.74.32-.33.57-.73.74-1.18.18-.46.28-.96.28-1.51s-.09-1.07-.28-1.51c-.17-.46-.42-.84-.74-1.16-.31-.33-.68-.58-1.11-.76-.42-.17-.87-.26-1.37-.26s-.95.09-1.38.26c-.42.17-.79.42-1.11.76-.31.32-.55.71-.74,1.16-.17.44-.26.95-.26,1.51s.09,1.06.26,1.51c.18.46.43.85.74,1.18.32.32.69.57,1.11.74.43.17.89.26,1.38.26Zm18.29-10.15h3.66v12.92h-3.66v-12.92Zm-4.98,12.92h-3.66v-12.92h3.66v12.92Zm5.24-5.04h-5.5v-3.03h5.5v3.03Z"/><path class="cls-2" d="m5.22,87.86c.09,0,.17.03.23.1s.09.15.09.24v3.3c0,.43-.1.81-.3,1.15-.19.34-.46.61-.79.81-.33.19-.71.29-1.13.29s-.81-.1-1.15-.29c-.33-.2-.6-.47-.79-.81s-.29-.72-.29-1.15v-3.3c0-.09.03-.17.09-.24.07-.07.15-.1.26-.1.09,0,.17.03.23.1.07.07.11.15.11.24v3.3c0,.3.07.58.21.81s.32.43.56.56c.24.13.5.2.77.2s.54-.07.78-.2c.24-.14.43-.33.57-.56.15-.24.22-.51.22-.81v-3.3c0-.09.03-.17.08-.24s.13-.1.23-.1Zm5.68-.02c.08,0,.16.03.22.09.07.06.1.13.1.21,0,.07-.02.14-.07.21l-1.83,2.47-.37-.52,1.69-2.29c.07-.11.16-.16.27-.16Zm-3.89,0c.12,0,.21.05.27.14l3.85,5.19c.04.07.07.14.07.21,0,.1-.04.18-.11.24-.07.06-.15.09-.22.09-.11,0-.2-.05-.27-.14l-3.85-5.2c-.04-.06-.07-.12-.07-.2,0-.09.03-.17.1-.23.07-.07.15-.1.23-.1Zm-.03,5.87c-.09,0-.16-.03-.22-.09-.06-.07-.08-.13-.08-.2,0-.08.03-.15.08-.22l1.84-2.5.36.55-1.7,2.32c-.07.1-.16.15-.27.15Zm10.31-5.85c.4,0,.76.08,1.06.23.31.15.57.36.77.63.2.27.36.58.46.94.11.35.16.72.16,1.1,0,.53-.09,1.02-.27,1.46-.18.44-.45.79-.81,1.06-.36.26-.81.39-1.36.39h-2.08c-.09,0-.17-.03-.24-.1-.06-.07-.09-.15-.09-.24v-5.14c0-.09.03-.17.09-.23.07-.07.15-.1.24-.1h2.08Zm-.08,5.17c.43,0,.77-.1,1.04-.31.27-.2.47-.48.59-.82.13-.34.19-.72.19-1.13,0-.3-.04-.58-.11-.86-.07-.28-.17-.52-.32-.73-.14-.21-.33-.38-.56-.5-.23-.12-.5-.18-.82-.18h-1.7l.07-.07v4.68l-.05-.08h1.69Zm4.14-5.17h2.96c.09,0,.17.03.24.09.07.06.1.14.1.23s-.03.17-.1.23c-.07.06-.15.08-.24.08h-2.68l.07-.14v2.1l-.08-.09h2.31c.09,0,.17.03.24.09.07.06.1.14.1.23s-.03.17-.1.23c-.07.06-.15.08-.24.08h-2.28l.06-.07v2.15l-.05-.06h2.65c.09,0,.17.03.24.1.07.07.1.14.1.22,0,.09-.03.17-.1.23-.07.06-.15.09-.24.09h-2.96c-.09,0-.17-.03-.24-.1-.06-.07-.09-.15-.09-.24v-5.14c0-.09.03-.17.09-.23.07-.07.15-.1.24-.1Zm6.27,5.9c-.41,0-.77-.06-1.08-.18s-.61-.32-.9-.58c-.04-.04-.07-.08-.1-.12-.02-.05-.03-.1-.03-.16,0-.09.03-.17.09-.23.07-.07.15-.11.24-.11.08,0,.15.03.21.09.22.21.45.37.7.48.25.11.54.17.86.17.24,0,.46-.04.66-.12.2-.08.36-.19.47-.32.12-.14.17-.3.17-.48,0-.22-.07-.4-.2-.55-.12-.14-.29-.26-.52-.36-.22-.1-.47-.18-.76-.25-.25-.06-.49-.14-.71-.22-.21-.09-.39-.2-.55-.32-.16-.13-.28-.29-.37-.47-.08-.19-.12-.41-.12-.66,0-.32.08-.59.25-.83.17-.24.4-.42.69-.55.29-.13.63-.2,1.01-.2.34,0,.66.06.96.17.3.11.55.26.73.46.11.11.17.21.17.31,0,.08-.04.16-.11.23-.07.07-.14.1-.23.1-.06,0-.12-.02-.17-.07-.09-.11-.21-.2-.36-.28s-.3-.15-.47-.2c-.17-.05-.34-.07-.52-.07-.25,0-.48.04-.67.12-.19.07-.35.18-.46.32-.11.13-.16.29-.16.48,0,.21.06.38.18.52.12.13.29.24.49.33.2.08.43.16.68.22.27.07.52.14.75.23.23.08.43.19.6.32s.29.29.38.49c.09.19.14.43.14.72,0,.3-.09.58-.26.81-.17.24-.41.43-.71.56-.29.13-.63.2-1,.21Zm3.93-.42c0,.09-.04.17-.11.24-.07.07-.15.1-.24.1-.11,0-.19-.03-.25-.1-.06-.07-.09-.15-.09-.24v-5.13c0-.1.03-.18.1-.24.07-.07.15-.1.25-.1.09,0,.17.03.24.1.07.06.1.14.1.24v5.13Zm4.28.42c-.43,0-.82-.07-1.19-.22-.36-.16-.68-.37-.96-.64-.27-.27-.48-.59-.64-.95-.15-.37-.22-.76-.22-1.18s.07-.82.22-1.18c.16-.37.37-.68.64-.96.28-.27.6-.48.96-.63.37-.15.76-.22,1.19-.22.28,0,.55.03.81.1.27.06.51.16.72.29.06.03.09.07.12.12.03.05.04.1.04.16,0,.09-.03.17-.1.24-.06.07-.13.1-.22.1-.03,0-.07,0-.1-.02-.03-.01-.06-.02-.09-.03-.17-.09-.36-.16-.56-.21-.2-.06-.41-.08-.63-.08-.44,0-.83.1-1.18.31-.34.2-.61.48-.81.83-.2.35-.3.74-.3,1.19s.1.83.3,1.19c.2.35.47.63.81.83.35.2.74.31,1.18.31.22,0,.45-.03.68-.09.24-.06.44-.14.61-.23l-.06.2v-1.75l.13.12h-1.27c-.09,0-.17-.03-.24-.09-.06-.07-.09-.15-.09-.24s.03-.17.09-.23c.07-.07.15-.1.24-.1h1.51c.1,0,.18.03.24.1.06.07.09.15.09.24v1.92c0,.07-.02.12-.05.17-.03.05-.07.09-.12.12-.25.16-.53.29-.83.39-.3.09-.61.14-.94.14Zm7.6-5.9c.09,0,.17.03.22.09.06.06.08.13.08.22v5.16c0,.11-.03.19-.1.26-.07.06-.15.09-.24.09-.05,0-.1,0-.15-.02-.05-.02-.09-.05-.12-.08l-3.56-4.7.17-.1v4.6c0,.09-.03.16-.09.22-.06.06-.13.08-.22.08-.09,0-.16-.03-.22-.08-.06-.06-.08-.14-.08-.22v-5.18c0-.1.03-.18.09-.24.07-.06.14-.09.23-.09.05,0,.1.01.15.03.06.02.1.04.12.08l3.51,4.64-.11.13v-4.58c0-.09.03-.16.08-.22.06-.06.14-.09.22-.09Zm5.08,3.99c-.2,0-.38-.05-.55-.14-.17-.1-.3-.23-.4-.4s-.15-.35-.15-.56.05-.39.15-.56.23-.3.4-.4c.17-.1.35-.15.55-.15s.39.05.56.15c.17.1.3.23.4.4s.15.35.15.56-.05.39-.15.56-.23.3-.4.4c-.17.09-.35.14-.56.14Zm11.45-4.01c.09,0,.17.03.24.09.08.06.12.15.12.26,0,.04,0,.08-.02.12l-1.77,5.15c-.02.07-.06.12-.12.16-.06.03-.11.05-.17.06-.07,0-.13-.02-.19-.05-.06-.04-.11-.09-.14-.17l-1.39-3.36.07.02-1.38,3.33c-.03.07-.08.13-.14.17-.06.03-.12.05-.19.05-.06,0-.12-.02-.18-.06-.06-.04-.09-.09-.12-.16l-1.77-5.15s-.02-.08-.02-.12c0-.11.04-.2.12-.26.08-.07.17-.1.25-.1.07,0,.13.02.19.06s.1.09.12.16l1.55,4.59h-.12l1.35-3.35c.03-.07.07-.12.12-.16s.12-.06.19-.06c.07,0,.13.02.18.06.06.04.1.09.12.16l1.31,3.3-.1.04,1.55-4.58c.02-.07.06-.12.12-.16s.13-.06.2-.06Zm1.8.02h2.96c.09,0,.17.03.24.09.07.06.1.14.1.23s-.03.17-.1.23c-.07.06-.15.08-.24.08h-2.68l.07-.14v2.1l-.08-.09h2.31c.09,0,.17.03.24.09.07.06.1.14.1.23s-.03.17-.1.23c-.07.06-.15.08-.24.08h-2.28l.06-.07v2.15l-.05-.06h2.65c.09,0,.17.03.24.1.07.07.1.14.1.22,0,.09-.03.17-.1.23-.07.06-.15.09-.24.09h-2.96c-.09,0-.17-.03-.24-.1-.06-.07-.09-.15-.09-.24v-5.14c0-.09.03-.17.09-.23.07-.07.15-.1.24-.1Zm7.07,0c.49,0,.86.13,1.12.38.27.25.4.6.4,1.06,0,.24-.06.47-.17.67s-.27.37-.49.49c-.21.12-.47.19-.78.2l-.02-.23c.19,0,.39.03.6.08.2.06.39.14.56.27.18.12.32.28.42.48.11.2.17.45.17.74,0,.32-.05.58-.16.8-.11.21-.25.38-.42.52-.17.13-.37.22-.58.27-.21.06-.42.08-.64.08h-2.18c-.09,0-.17-.03-.24-.1-.06-.07-.09-.15-.09-.24v-5.14c0-.09.03-.17.09-.23.07-.07.15-.1.24-.1h2.17Zm-.1.66h-1.79l.1-.15v2.07l-.09-.11h1.79c.24,0,.45-.08.62-.23.18-.16.27-.4.27-.71,0-.28-.08-.49-.24-.64-.16-.16-.38-.23-.66-.23Zm.07,2.48h-1.81l.06-.06v2.17l-.07-.07h1.84c.33,0,.59-.08.8-.25.21-.17.32-.42.32-.77,0-.27-.06-.48-.17-.62-.11-.15-.25-.25-.43-.31-.17-.06-.35-.08-.54-.08Zm7.99-3.13c.4,0,.76.08,1.06.23.31.15.57.36.77.63.2.27.36.58.46.94.11.35.16.72.16,1.1,0,.53-.09,1.02-.27,1.46-.18.44-.45.79-.81,1.06-.36.26-.81.39-1.36.39h-2.08c-.09,0-.17-.03-.24-.1-.06-.07-.09-.15-.09-.24v-5.14c0-.09.03-.17.09-.23.07-.07.15-.1.24-.1h2.08Zm-.08,5.17c.43,0,.77-.1,1.04-.31.27-.2.47-.48.59-.82.13-.34.19-.72.19-1.13,0-.3-.04-.58-.11-.86-.07-.28-.17-.52-.32-.73-.14-.21-.33-.38-.56-.5-.23-.12-.5-.18-.82-.18h-1.7l.07-.07v4.68l-.05-.08h1.69Zm4.14-5.17h2.96c.09,0,.17.03.24.09.07.06.1.14.1.23s-.03.17-.1.23c-.07.06-.15.08-.24.08h-2.68l.07-.14v2.1l-.08-.09h2.31c.09,0,.17.03.24.09.07.06.1.14.1.23s-.03.17-.1.23c-.07.06-.15.08-.24.08h-2.28l.06-.07v2.15l-.05-.06h2.65c.09,0,.17.03.24.1.07.07.1.14.1.22,0,.09-.03.17-.1.23-.07.06-.15.09-.24.09h-2.96c-.09,0-.17-.03-.24-.1-.06-.07-.09-.15-.09-.24v-5.14c0-.09.03-.17.09-.23.07-.07.15-.1.24-.1Zm8.79,0c.09,0,.17.03.24.09.07.06.1.13.1.22,0,.04-.01.09-.03.15l-2.17,5.14c-.03.07-.08.13-.14.17-.06.03-.12.05-.18.05-.06,0-.12-.02-.17-.06-.06-.04-.1-.09-.12-.16l-2.16-5.13s-.02-.04-.02-.07c0-.03,0-.06,0-.08,0-.11.04-.19.11-.24.08-.06.15-.09.22-.09.15,0,.26.08.32.23l1.99,4.74h-.19l1.92-4.75c.07-.14.17-.21.31-.21Zm1.84,0h2.96c.09,0,.17.03.24.09.07.06.1.14.1.23s-.03.17-.1.23c-.07.06-.15.08-.24.08h-2.68l.07-.14v2.1l-.08-.09h2.31c.09,0,.17.03.24.09.07.06.1.14.1.23s-.03.17-.1.23c-.07.06-.15.08-.24.08h-2.28l.06-.07v2.15l-.05-.06h2.65c.09,0,.17.03.24.1.07.07.1.14.1.22,0,.09-.03.17-.1.23-.07.06-.15.09-.24.09h-2.96c-.09,0-.17-.03-.24-.1-.06-.07-.09-.15-.09-.24v-5.14c0-.09.03-.17.09-.23.07-.07.15-.1.24-.1Zm7.78,5.16c.09,0,.17.03.24.1.07.06.1.14.1.23s-.03.17-.1.23c-.07.06-.15.09-.24.09h-2.87c-.09,0-.17-.03-.24-.1-.06-.07-.09-.15-.09-.24v-5.14c0-.09.03-.17.1-.23.07-.07.15-.1.25-.1.09,0,.17.03.24.1.07.06.1.14.1.23v4.98l-.17-.15h2.68Zm6.62-2.25c0,.43-.07.82-.21,1.19-.14.36-.33.68-.58.95-.25.27-.55.48-.89.63s-.72.22-1.12.22-.79-.07-1.13-.22c-.34-.15-.63-.36-.88-.63-.25-.27-.44-.59-.58-.95-.14-.37-.21-.76-.21-1.19s.07-.83.21-1.19c.14-.37.33-.68.58-.95.25-.27.54-.48.88-.63.34-.15.72-.22,1.13-.22s.78.07,1.12.22.64.36.89.63c.25.27.44.58.58.95.14.36.21.76.21,1.19Zm-.71,0c0-.45-.09-.86-.27-1.2-.18-.35-.42-.62-.73-.82s-.67-.3-1.08-.3-.77.1-1.09.3c-.31.2-.55.47-.73.82-.18.35-.27.75-.27,1.2s.09.85.27,1.2c.18.35.42.62.73.82.32.2.68.3,1.09.3s.77-.1,1.08-.3.55-.47.73-.82c.18-.35.27-.76.27-1.2Zm4.26-2.91c.3,0,.58.07.82.22.24.15.43.35.57.61.14.26.22.56.22.89s-.07.62-.22.89c-.14.27-.33.48-.57.63-.24.16-.52.23-.82.23h-1.69l.06-.1v2.09c0,.09-.03.17-.09.24-.06.07-.14.1-.23.1-.1,0-.18-.03-.24-.1-.06-.07-.08-.15-.08-.24v-5.14c0-.09.03-.17.09-.23.07-.07.15-.1.24-.1h1.94Zm0,2.84c.18,0,.34-.05.48-.15.14-.1.25-.24.33-.41s.12-.36.12-.56c0-.21-.04-.4-.12-.56-.08-.16-.19-.29-.33-.38-.14-.1-.3-.15-.48-.15h-1.69l.06-.09v2.38l-.06-.08h1.69Zm3.2-2.85s.1.01.16.04c.06.03.11.06.14.11l2.2,3.33h-.29s2.23-3.33,2.23-3.33c.07-.11.17-.16.28-.15.09,0,.17.04.23.1.07.06.1.14.1.24v5.14c0,.09-.03.17-.1.24-.07.07-.15.1-.25.1s-.18-.03-.25-.1c-.07-.07-.1-.15-.1-.24v-4.51l.21.04-1.96,2.98s-.07.07-.12.1c-.04.03-.09.04-.14.04s-.1-.01-.15-.04c-.05-.03-.09-.06-.12-.1l-1.94-2.98.17-.22v4.69c0,.09-.03.17-.09.24-.06.07-.14.1-.23.1s-.17-.03-.23-.1c-.06-.07-.08-.15-.08-.24v-5.14c0-.09.03-.17.09-.23.07-.07.15-.11.25-.11Zm7.01,0h2.96c.09,0,.17.03.24.09.07.06.1.14.1.23s-.03.17-.1.23c-.07.06-.15.08-.24.08h-2.68l.07-.14v2.1l-.08-.09h2.31c.09,0,.17.03.24.09.07.06.1.14.1.23s-.03.17-.1.23c-.07.06-.15.08-.24.08h-2.28l.06-.07v2.15l-.05-.06h2.65c.09,0,.17.03.24.1.07.07.1.14.1.22,0,.09-.03.17-.1.23-.07.06-.15.09-.24.09h-2.96c-.09,0-.17-.03-.24-.1-.06-.07-.09-.15-.09-.24v-5.14c0-.09.03-.17.09-.23.07-.07.15-.1.24-.1Zm8.88,0c.09,0,.17.03.22.09.06.06.08.13.08.22v5.16c0,.11-.03.19-.1.26-.07.06-.15.09-.24.09-.05,0-.1,0-.15-.02-.05-.02-.09-.05-.12-.08l-3.56-4.7.17-.1v4.6c0,.09-.03.16-.09.22-.06.06-.13.08-.22.08-.09,0-.16-.03-.22-.08-.06-.06-.08-.14-.08-.22v-5.18c0-.1.03-.18.09-.24.07-.06.14-.09.23-.09.05,0,.1.01.15.03.06.02.1.04.12.08l3.51,4.64-.11.13v-4.58c0-.09.03-.16.08-.22.06-.06.14-.09.22-.09Zm3.73,5.82c-.1,0-.18-.03-.25-.1-.07-.07-.1-.15-.1-.24v-5.13h.71v5.13c0,.09-.03.17-.1.24-.07.07-.15.1-.26.1Zm-1.93-5.18c-.09,0-.17-.03-.24-.08-.06-.06-.09-.14-.09-.23s.03-.17.09-.22c.07-.06.15-.09.24-.09h3.86c.09,0,.17.03.24.09.07.06.1.13.1.22,0,.1-.03.18-.1.23-.07.06-.15.08-.24.08h-3.86Z"/></g></svg>