<?xml version="1.0" encoding="utf-8"?>
<!-- Generator: Adobe Illustrator 26.0.2, SVG Export Plug-In . SVG Version: 6.00 Build 0)  -->
<svg version="1.1" id="Layer_1" xmlns="http://www.w3.org/2000/svg" xmlns:xlink="http://www.w3.org/1999/xlink" x="0px" y="0px"
	 viewBox="0 0 1079.2 651.9" style="enable-background:new 0 0 1079.2 651.9;" xml:space="preserve">
<style type="text/css">
	.st0{fill:url(#SVGID_1_);}
	.st1{fill:url(#SVGID_00000114786292089376174510000004530756914677214369_);}
</style>
<g id="Layer_2_00000060714815624107357020000013973815870005929603_">
	<g id="Layer_1-2">
		<linearGradient id="SVGID_1_" gradientUnits="userSpaceOnUse" x1="508.47" y1="445.18" x2="530.94" y2="422.71">
			<stop  offset="0" style="stop-color:#90EE90"/>
			<stop  offset="1" style="stop-color:#ADD8E6"/>
		</linearGradient>
		<path class="st0" d="M519.5,411.9v44.3h0.3v-44.6L519.5,411.9z"/>
		
			<linearGradient id="SVGID_00000118355400271653335820000015153072476569756332_" gradientUnits="userSpaceOnUse" x1="238.0439" y1="670.7838" x2="839.9902" y2="68.8375">
			<stop  offset="0" style="stop-color:#90EE90"/>
			<stop  offset="1" style="stop-color:#ADD8E6"/>
		</linearGradient>
		<path style="fill:url(#SVGID_00000118355400271653335820000015153072476569756332_);" d="M1079.2,552.7
			c-8.8,20.8-22.8,38.6-42,53.5c-19.5,15-41.4,26.4-64.8,33.9c-23,7.6-47.1,11.6-71.4,11.7l0.1,0.1H786.5L664.7,478.4l-45.1,46.3
			v127.3h-99.9V411.6l-0.3,0.3c-34.6,31.7-74.3,47.5-119.3,47.5c-28.6,0.2-57-5.6-83.3-16.9c-25.7-11-49.1-27-68.7-47
			c-0.4,0.7-0.8,1.4-1.2,2.1c-11.8,20.6-29.4,36.3-53,47.1S139,461,99.6,461c-20.1,0-38.3-2.4-54.6-7.1c-16-4.6-31.2-11.7-45-21.2
			l22.5-86.1c4.7,2.6,13.9,6.6,27.6,12.2s30,8.4,48.8,8.4c15.4,0,27.9-2.5,37.6-7.6s16.9-12.9,21.8-23.5c4.9-10.6,8.3-24.3,10-41
			s2.6-36.8,2.5-60.1V1.6h105.4v40.6c13.6-9.8,28.3-18.1,43.8-24.7C347.5,5.8,377.2,0,409.1,0c41.7,0,78.5,8.9,110.4,26.8
			s55.7,41.9,71.5,72.1l-78.5,58.7c-9.7-19.9-25.2-36.4-44.4-47.5c-19-11.2-40.8-17-62.8-16.9C389,93,373,96.6,358.4,103.7
			c-14.2,7-26.7,17-36.7,29.3c-10.5,13-18.6,27.8-23.9,43.7c-5.9,17.3-8.8,35.4-8.6,53.6c0,19.6,3,37.6,8.9,54.2
			c5.5,15.8,14,30.4,24.9,43.1c21.7,24.9,53.1,39,86.1,38.6c21.7,0,42.5-5.4,62.5-16.3c17.2-9.3,33.2-22.4,47.9-39.1v-16.1h-86.8
			v-75.3h174.2v0.1h12.8v186.4L778,219.5h112.1l-0.2,0.2c4.4-0.2,8.8-0.4,13.4-0.4c40,0,74.7,8.6,104.2,25.8s51.6,39.6,66.4,67.3
			l-76.3,53.4c-6-15.2-14.3-27.1-24.9-35.7c-10.2-8.4-22.1-14.5-34.8-18c-12-3.3-24.4-5-36.9-5.1c-18.4,0-34.6,3.7-48.6,11.1
			c-13.7,7.1-25.6,17.3-34.8,29.7c-9.3,12.5-16.3,26.5-20.7,41.4c-4.5,14.6-6.8,29.7-6.9,45c-0.1,16.8,2.7,33.4,8.1,49.2
			c5.1,15.1,12.8,29.1,22.8,41.4c9.7,11.9,21.7,21.6,35.4,28.5c13.8,7,29.3,10.5,46.5,10.5c12.4-0.1,24.8-2,36.6-5.7
			c12.7-3.9,24.4-10.4,34.5-18.9c10.6-8.8,18.7-20.4,24.3-34.8L1079.2,552.7z"/>
	</g>
</g>
</svg>
